<?xml version="1.0" encoding="UTF-8" standalone="no"?>
<svg
   version="1.1"
   width="1109"
   height="303"
   id="svg18"
   sodipodi:docname="logo-and-name-clean.svg"
   inkscape:version="1.3.2 (091e20e, 2023-11-25)"
   xmlns:inkscape="http://www.inkscape.org/namespaces/inkscape"
   xmlns:sodipodi="http://sodipodi.sourceforge.net/DTD/sodipodi-0.dtd"
   xmlns="http://www.w3.org/2000/svg"
   xmlns:svg="http://www.w3.org/2000/svg">
  <defs
     id="defs18" />
  <sodipodi:namedview
     id="namedview18"
     pagecolor="#ffffff"
     bordercolor="#000000"
     borderopacity="0.25"
     inkscape:showpageshadow="2"
     inkscape:pageopacity="0.0"
     inkscape:pagecheckerboard="0"
     inkscape:deskcolor="#d1d1d1"
     inkscape:zoom="1.2817724"
     inkscape:cx="586.6876"
     inkscape:cy="120.14613"
     inkscape:window-width="3136"
     inkscape:window-height="1383"
     inkscape:window-x="0"
     inkscape:window-y="29"
     inkscape:window-maximized="0"
     inkscape:current-layer="svg18" />
  <path
     id="path33"
     style="fill:#00a4ff;fill-opacity:1;stroke-width:0.377;stroke-dasharray:none"
     d="M 152.25977,2.5546875 A 148.69197,148.69197 0 0 0 3.5683594,151.24805 148.69197,148.69197 0 0 0 152.25977,299.93945 148.69197,148.69197 0 0 0 300.95117,151.24805 148.69197,148.69197 0 0 0 152.25977,2.5546875 Z M 68.871094,71.714844 H 235.64844 c 4.43199,0 8,3.568004 8,8 V 222.78125 c 0,4.432 -3.56801,8 -8,8 H 68.871094 c -4.431996,0 -8,-3.568 -8,-8 V 79.714844 c 0,-4.431996 3.568004,-8 8,-8 z" />
  <path
     d="M0 0 C7.26 0 14.52 0 22 0 C24.15057626 5.50939945 26.30108033 11.01882698 28.45141602 16.52832031 C29.17956641 18.39389571 29.90775512 20.25945615 30.63598633 22.125 C35.43277695 34.41325864 40.22214391 46.70436638 45 59 C45.66 59 46.32 59 47 59 C48.41687002 57.37431966 48.41687002 57.37431966 49.8359375 55.22265625 C50.68103882 54.0003833 50.68103882 54.0003833 51.54321289 52.75341797 C52.14770264 51.86541504 52.75219238 50.97741211 53.375 50.0625 C54.65202507 48.21201962 55.92937394 46.36176266 57.20703125 44.51171875 C58.16730225 43.11445557 58.16730225 43.11445557 59.14697266 41.68896484 C61.75889633 37.89875044 64.40569776 34.13384005 67.0625 30.375 C67.53985596 29.69872559 68.01721191 29.02245117 68.5090332 28.32568359 C74.27551766 20.1721697 80.10392579 12.06036094 86 4 C86.61257912 2.96526299 86.61257912 2.96526299 87.23753357 1.90962219 C89 0 89 0 91.54370117 -0.45410156 C92.53345947 -0.4331543 93.52321777 -0.41220703 94.54296875 -0.390625 C95.61611328 -0.37773437 96.68925781 -0.36484375 97.79492188 -0.3515625 C98.91447266 -0.31804687 100.03402344 -0.28453125 101.1875 -0.25 C102.31865234 -0.23195312 103.44980469 -0.21390625 104.61523438 -0.1953125 C107.41100376 -0.14812652 110.20507972 -0.08230595 113 0 C109.98077084 19.34702058 106.95853088 38.69356855 103.93226528 58.03948975 C103.27232781 62.25836247 102.61283465 66.47730439 101.95361328 70.69628906 C101.2414046 75.25327443 100.5274396 79.80998009 99.81158447 84.36639404 C99.56351317 85.94706441 99.31606982 87.52783346 99.0692749 89.10870361 C98.73408221 91.25503203 98.39666247 93.40099801 98.05859375 95.546875 C97.78486938 97.29242676 97.78486938 97.29242676 97.50561523 99.07324219 C97.10337948 101.40158706 96.57307137 103.70771453 96 106 C87.75 106 79.5 106 71 106 C73.35532037 87.28140128 76.12138157 68.64353886 79 50 C78.28457031 51.01835937 77.56914062 52.03671875 76.83203125 53.0859375 C71.26168671 61.00308256 65.66092253 68.89730729 60 76.75 C59.46093018 77.49942871 58.92186035 78.24885742 58.36645508 79.02099609 C57.59724731 80.08568115 57.59724731 80.08568115 56.8125 81.171875 C56.36519531 81.7915918 55.91789062 82.41130859 55.45703125 83.04980469 C53.69407496 85.40947206 51.84004719 87.69994101 50 90 C44.72 90 39.44 90 34 90 C26.08 71.19 26.08 71.19 18 52 C17.67 52 17.34 52 17 52 C16.852994 52.94840508 16.852994 52.94840508 16.70301819 53.91596985 C15.68411345 60.48605204 14.66159643 67.05556472 13.63696289 73.62475586 C13.25484689 76.077736 12.87365774 78.5308607 12.4934082 80.98413086 C11.94725215 84.50673057 11.39778449 88.02879998 10.84765625 91.55078125 C10.6778273 92.65086014 10.50799835 93.75093903 10.33302307 94.88435364 C10.17293259 95.90518539 10.0128421 96.92601715 9.84790039 97.9777832 C9.70800186 98.87713089 9.56810333 99.77647858 9.42396545 100.70307922 C9 103 9 103 8 106 C-0.25 106 -8.5 106 -17 106 C-14.45560097 86.41361897 -11.37409341 66.92072041 -8.27441406 47.41601562 C-7.51620067 42.64423517 -6.76327483 37.87163632 -6.01166344 33.0988121 C-5.42893172 29.40284525 -4.84313803 25.70736873 -4.25642776 22.01203156 C-3.97709793 20.24988347 -3.69880816 18.48757018 -3.42158127 16.72509003 C-3.03731951 14.28463465 -2.6488626 11.84488381 -2.25927734 9.40527344 C-2.08940056 8.31776291 -2.08940056 8.31776291 -1.91609192 7.20828247 C-1.11421917 2.22843834 -1.11421917 2.22843834 0 0 Z "
     fill="#00A4FF"
     transform="translate(351,156)"
     id="path3" />
  <path
     d="M0 0 C7.26 0 14.52 0 22 0 C24.15057626 5.50939945 26.30108033 11.01882698 28.45141602 16.52832031 C29.17956641 18.39389571 29.90775512 20.25945615 30.63598633 22.125 C35.43277695 34.41325864 40.22214391 46.70436638 45 59 C45.66 59 46.32 59 47 59 C48.41687002 57.37431966 48.41687002 57.37431966 49.8359375 55.22265625 C50.68103882 54.0003833 50.68103882 54.0003833 51.54321289 52.75341797 C52.14770264 51.86541504 52.75219238 50.97741211 53.375 50.0625 C54.65202507 48.21201962 55.92937394 46.36176266 57.20703125 44.51171875 C58.16730225 43.11445557 58.16730225 43.11445557 59.14697266 41.68896484 C61.75889633 37.89875044 64.40569776 34.13384005 67.0625 30.375 C67.53985596 29.69872559 68.01721191 29.02245117 68.5090332 28.32568359 C74.27551766 20.1721697 80.10392579 12.06036094 86 4 C86.61257912 2.96526299 86.61257912 2.96526299 87.23753357 1.90962219 C89 0 89 0 91.54370117 -0.45410156 C92.53345947 -0.4331543 93.52321777 -0.41220703 94.54296875 -0.390625 C95.61611328 -0.37773438 96.68925781 -0.36484375 97.79492188 -0.3515625 C98.91447266 -0.31804688 100.03402344 -0.28453125 101.1875 -0.25 C102.31865234 -0.23195312 103.44980469 -0.21390625 104.61523438 -0.1953125 C107.41100376 -0.14812652 110.20507972 -0.08230595 113 0 C109.98077084 19.34702058 106.95853088 38.69356855 103.93226528 58.03948975 C103.27232781 62.25836247 102.61283465 66.47730439 101.95361328 70.69628906 C101.2414046 75.25327443 100.5274396 79.80998009 99.81158447 84.36639404 C99.56351317 85.94706441 99.31606982 87.52783346 99.0692749 89.10870361 C98.73408221 91.25503203 98.39666247 93.40099801 98.05859375 95.546875 C97.78486938 97.29242676 97.78486938 97.29242676 97.50561523 99.07324219 C97.10337948 101.40158706 96.57307137 103.70771453 96 106 C87.75 106 79.5 106 71 106 C73.35532037 87.28140128 76.12138157 68.64353886 79 50 C78.28457031 51.01835938 77.56914062 52.03671875 76.83203125 53.0859375 C71.26168671 61.00308256 65.66092253 68.89730729 60 76.75 C59.46093018 77.49942871 58.92186035 78.24885742 58.36645508 79.02099609 C57.59724731 80.08568115 57.59724731 80.08568115 56.8125 81.171875 C56.36519531 81.7915918 55.91789062 82.41130859 55.45703125 83.04980469 C53.69407496 85.40947206 51.84004719 87.69994101 50 90 C44.72 90 39.44 90 34 90 C26.08 71.19 26.08 71.19 18 52 C17.67 52 17.34 52 17 52 C16.852994 52.94840508 16.852994 52.94840508 16.70301819 53.91596985 C15.68411345 60.48605204 14.66159643 67.05556472 13.63696289 73.62475586 C13.25484689 76.077736 12.87365774 78.5308607 12.4934082 80.98413086 C11.94725215 84.50673057 11.39778449 88.02879998 10.84765625 91.55078125 C10.6778273 92.65086014 10.50799835 93.75093903 10.33302307 94.88435364 C10.17293259 95.90518539 10.0128421 96.92601715 9.84790039 97.9777832 C9.70800186 98.87713089 9.56810333 99.77647858 9.42396545 100.70307922 C9 103 9 103 8 106 C-0.25 106 -8.5 106 -17 106 C-14.45560097 86.41361897 -11.37409341 66.92072041 -8.27441406 47.41601562 C-7.51620067 42.64423517 -6.76327483 37.87163632 -6.01166344 33.0988121 C-5.42893172 29.40284525 -4.84313803 25.70736873 -4.25642776 22.01203156 C-3.97709793 20.24988347 -3.69880816 18.48757018 -3.42158127 16.72509003 C-3.03731951 14.28463465 -2.6488626 11.84488381 -2.25927734 9.40527344 C-2.08940056 8.31776291 -2.08940056 8.31776291 -1.91609192 7.20828247 C-1.11421917 2.22843834 -1.11421917 2.22843834 0 0 Z "
     fill="#00A4FF"
     transform="translate(368,38)"
     id="path4" />
  <path
     d="M0 0 C1.084021 0.00523682 2.16804199 0.01047363 3.28491211 0.01586914 C4.45473633 0.0190918 5.62456055 0.02231445 6.82983398 0.02563477 C8.0615332 0.03401367 9.29323242 0.04239258 10.56225586 0.05102539 C12.41560547 0.05779297 12.41560547 0.05779297 14.30639648 0.06469727 C17.37089703 0.07652931 20.43530307 0.09301366 23.49975586 0.11352539 C23.38231967 1.73908952 23.25526125 3.36395827 23.12475586 4.98852539 C23.05514648 5.89344727 22.98553711 6.79836914 22.91381836 7.73071289 C22.36308917 12.23006648 21.38873724 16.66861848 20.49975586 21.11352539 C27.42975586 21.11352539 34.35975586 21.11352539 41.49975586 21.11352539 C41.0130205 28.25231063 40.25713544 34.08400707 38.49975586 41.11352539 C31.56975586 41.11352539 24.63975586 41.11352539 17.49975586 41.11352539 C16.99387634 44.63360368 16.49487548 48.15443134 15.99975586 51.67602539 C15.85666992 52.66666992 15.71358398 53.65731445 15.56616211 54.67797852 C13.71483959 63.93499204 13.71483959 63.93499204 16.07788086 72.53540039 C19.29961274 74.63472246 21.43732165 74.51602276 25.24975586 74.36352539 C26.42022461 74.32743164 27.59069336 74.29133789 28.79663086 74.25415039 C29.68866211 74.20774414 30.58069336 74.16133789 31.49975586 74.11352539 C32.37996955 80.82515477 32.61357541 87.3475852 32.49975586 94.11352539 C21.76390734 98.52994468 10.30860886 98.31603433 -0.50024414 94.11352539 C-6.54583142 90.95052796 -9.82164297 86.63858785 -12.75024414 80.48852539 C-14.82470192 71.15346539 -13.19466724 61.63705719 -11.50024414 52.36352539 C-11.21407227 50.72770508 -11.21407227 50.72770508 -10.92211914 49.05883789 C-10.45719998 46.40879867 -9.98002968 43.76091345 -9.50024414 41.11352539 C-14.12024414 41.11352539 -18.74024414 41.11352539 -23.50024414 41.11352539 C-23.17024414 42.00040039 -22.84024414 42.88727539 -22.50024414 43.80102539 C-19.30857983 55.16702419 -21.56435539 67.20465144 -27.18774414 77.36352539 C-33.58590444 87.25016918 -43.63227402 93.53821735 -55.00024414 96.48852539 C-67.71877746 98.71140419 -80.40145343 96.93466943 -91.30883789 89.84399414 C-98.11226482 84.47159105 -101.29290037 77.38193459 -103.18774414 69.11352539 C-104.46737327 56.82908575 -102.36881671 46.48472825 -95.50024414 36.11352539 C-93.06274414 33.30102539 -93.06274414 33.30102539 -90.50024414 31.11352539 C-90.00008789 30.62368164 -89.49993164 30.13383789 -88.98461914 29.62915039 C-80.91832291 22.01516983 -69.98451098 19.19041854 -59.07836914 19.07836914 C-48.00523973 19.57400048 -37.56727423 22.0829977 -29.50024414 30.11352539 C-24.50024414 36.65011076 -24.50024414 36.65011076 -24.50024414 40.11352539 C-23.84024414 40.11352539 -23.18024414 40.11352539 -22.50024414 40.11352539 C-22.4396582 39.32848633 -22.37907227 38.54344727 -22.31665039 37.73461914 C-21.872042 32.15991391 -21.37899771 26.63711923 -20.50024414 21.11352539 C-15.88024414 21.11352539 -11.26024414 21.11352539 -6.50024414 21.11352539 C-6.2952832 19.68137695 -6.09032227 18.24922852 -5.87915039 16.77368164 C-5.60723281 14.90776447 -5.33508555 13.04188075 -5.06274414 11.17602539 C-4.86068359 9.75773438 -4.86068359 9.75773438 -4.65454102 8.31079102 C-4.45634766 6.96210938 -4.45634766 6.96210938 -4.25415039 5.58618164 C-4.13370361 4.75352783 -4.01325684 3.92087402 -3.88916016 3.06298828 C-3.3056151 0.13793662 -3.03988522 0.13802818 0 0 Z M-70.50024414 43.11352539 C-75.37985241 50.55210561 -77.38980119 58.2647737 -76.50024414 67.11352539 C-75.06067096 70.81528499 -73.54674203 73.56762575 -70.50024414 76.11352539 C-66.1736751 77.41561665 -62.45305549 77.4371217 -58.18774414 75.98852539 C-52.37940124 71.93619313 -49.90893748 66.91200196 -48.50024414 60.11352539 C-47.89292066 53.7284218 -47.41789955 47.42057335 -51.50024414 42.11352539 C-57.97459856 37.79728911 -64.59631116 37.70502735 -70.50024414 43.11352539 Z "
     fill="#00A4FF"
     transform="translate(1003.500244140625,166.886474609375)"
     id="path5" />
  <path
     d="M0 0 C0.9594603 -0.00570007 1.91892059 -0.01140015 2.90745544 -0.01727295 C4.95285942 -0.0267508 6.99827885 -0.03326791 9.04370117 -0.03710938 C12.1186173 -0.04667291 15.19282326 -0.07760741 18.26757812 -0.109375 C37.39717873 -0.21294315 56.94117556 0.76585279 71.4296875 14.8125 C80.51021534 24.71853037 84.00311796 35.8311432 83.83984375 49.19921875 C82.58672201 66.40726547 77.28414435 81.74531717 64.1328125 93.41015625 C50.14378484 103.6509277 34.64129677 106.71707374 17.56640625 106.49609375 C16.29884491 106.49184891 15.03128357 106.48760406 13.72531128 106.48323059 C10.40773252 106.46943457 7.09061968 106.44263919 3.77319336 106.40911865 C0.36708173 106.37804399 -3.03909901 106.36464667 -6.4453125 106.34960938 C-13.09002064 106.31678055 -19.7344255 106.2667654 -26.37890625 106.203125 C-25.7052882 95.24098668 -23.77142063 84.43248013 -22.03515625 73.6015625 C-21.7024745 71.51220881 -21.36999897 69.42282228 -21.03771973 67.33340454 C-20.34413144 62.97757665 -19.64786451 58.62218764 -18.94970703 54.26708984 C-18.05325134 48.67342738 -17.16387844 43.078665 -16.27649689 37.48355675 C-15.59314152 33.18016027 -14.90594542 28.87738401 -14.21757507 24.57478714 C-13.88780559 22.51040833 -13.55928241 20.44583005 -13.23200989 18.38105392 C-12.77644472 15.51038828 -12.31569465 12.64060323 -11.85351562 9.77099609 C-11.71842087 8.91290344 -11.58332611 8.05481079 -11.44413757 7.17071533 C-10.09103888 -1.15766626 -7.81567311 0.03575552 0 0 Z M14.62109375 23.203125 C12.73752274 29.20353937 11.67713575 35.2269973 10.67578125 41.4296875 C10.50104279 42.4955307 10.32630432 43.5613739 10.14627075 44.65951538 C9.7795502 46.90321071 9.41491459 49.1472477 9.05224609 51.39160156 C8.49666512 54.82459442 7.93238022 58.256078 7.3671875 61.6875 C7.0111966 63.87231082 6.65571052 66.05720396 6.30078125 68.2421875 C6.13206512 69.26623688 5.963349 70.29028625 5.78952026 71.34536743 C5.63580963 72.30341278 5.482099 73.26145813 5.32373047 74.24853516 C5.11960037 75.50593002 5.11960037 75.50593002 4.91134644 76.78872681 C4.61142792 79.28352793 4.57076438 81.69284705 4.62109375 84.203125 C7.9126824 84.26217917 11.20413131 84.29706875 14.49609375 84.328125 C15.8728125 84.35326172 15.8728125 84.35326172 17.27734375 84.37890625 C28.03054633 84.45463303 37.20775041 83.15625157 45.30859375 75.63671875 C53.60724664 66.69492026 54.94781369 56.42634094 54.8359375 44.6171875 C54.44506587 38.40588188 52.52993803 33.20439048 48.23950195 28.50976562 C41.46466261 23.04002054 33.31836884 22.66423428 24.99609375 22.953125 C23.48982422 22.98019531 23.48982422 22.98019531 21.953125 23.0078125 C19.50806723 23.05438503 17.06512563 23.11975472 14.62109375 23.203125 Z "
     fill="#00A4FF"
     transform="translate(550.37890625,155.796875)"
     id="path6" />
  <path
     d="M0 0 C2.54503039 2.21663937 4.05449677 4.53676765 5.6953125 7.4765625 C6.6440625 6.5896875 7.5928125 5.7028125 8.5703125 4.7890625 C16.08439478 -1.57829237 23.78892204 -4.77000944 33.6953125 -4.5234375 C39.95863059 -3.95404495 45.28075353 -2.13242005 49.6953125 2.4765625 C56.20782266 11.01218973 54.37992575 23.84797559 53.03295898 33.89013672 C52.18347744 39.62311676 51.19486413 45.3306931 50.1953125 51.0390625 C49.85679808 53.03298711 49.51955077 55.02712727 49.18359375 57.02148438 C48.3709996 61.84300976 47.53277177 66.65903532 46.6953125 71.4765625 C37.7853125 71.4765625 28.8753125 71.4765625 19.6953125 71.4765625 C22.51541127 50.39296697 22.51541127 50.39296697 23.98071289 41.63793945 C26.81533263 29.79051977 26.81533263 29.79051977 24.44921875 18.7265625 C21.57596839 16.67881169 19.19900658 17.33164607 15.84765625 17.84765625 C12.44011276 18.84332685 11.39005621 20.41298734 9.6953125 23.4765625 C7.29398308 29.23265596 5.98303152 34.5930435 5.125 40.75390625 C4.99844025 41.60586075 4.87188049 42.45781525 4.7414856 43.33558655 C4.34274911 46.02726635 3.95576877 48.72045166 3.5703125 51.4140625 C3.17604748 54.13237813 2.77924683 56.85026806 2.37771606 59.56752014 C2.12934698 61.25177239 1.88546134 62.93669299 1.64645386 64.62229919 C0.80689051 70.36498449 0.80689051 70.36498449 -0.3046875 71.4765625 C-2.23136257 71.56404457 -4.16120611 71.58353584 -6.08984375 71.57421875 C-7.84458008 71.56938477 -7.84458008 71.56938477 -9.63476562 71.56445312 C-10.86646484 71.55607422 -12.09816406 71.54769531 -13.3671875 71.5390625 C-15.22053711 71.53229492 -15.22053711 71.53229492 -17.11132812 71.52539062 C-20.17582867 71.51355858 -23.24023471 71.49707423 -26.3046875 71.4765625 C-25.67777782 61.39485557 -24.09331367 51.53096917 -22.38598633 41.59008789 C-22.04036986 39.56733462 -21.70161805 37.54351285 -21.36328125 35.51953125 C-21.16017334 34.33383545 -20.95706543 33.14813965 -20.74780273 31.92651367 C-20.11747356 27.01897559 -19.78023887 22.24046448 -21.3046875 17.4765625 C-28.8606736 16.94481464 -28.8606736 16.94481464 -35.3046875 20.4765625 C-38.39568089 25.58029577 -39.28688228 30.62368022 -40.2421875 36.4140625 C-40.4882373 37.83452881 -40.4882373 37.83452881 -40.73925781 39.28369141 C-41.0871333 41.29668248 -41.43093998 43.31038028 -41.77099609 45.32470703 C-42.48525012 49.54292273 -43.22493382 53.75655135 -43.96411133 57.97045898 C-44.75029795 62.47145053 -45.52649817 66.97418139 -46.3046875 71.4765625 C-55.2146875 71.4765625 -64.1246875 71.4765625 -73.3046875 71.4765625 C-71.25664629 56.85689727 -69.05325531 42.27081874 -66.71533203 27.69482422 C-66.1703276 24.29314207 -65.62998566 20.89073852 -65.08984375 17.48828125 C-64.7424647 15.31505984 -64.39481892 13.14188104 -64.046875 10.96875 C-63.80624832 9.45025955 -63.80624832 9.45025955 -63.5607605 7.90109253 C-63.41035309 6.96806305 -63.25994568 6.03503357 -63.10498047 5.07373047 C-62.97413055 4.25548798 -62.84328064 3.43724548 -62.70846558 2.59420776 C-62.3046875 0.4765625 -62.3046875 0.4765625 -61.3046875 -2.5234375 C-52.7246875 -2.5234375 -44.1446875 -2.5234375 -35.3046875 -2.5234375 C-35.3046875 0.1165625 -35.3046875 2.7565625 -35.3046875 5.4765625 C-34.345625 4.3628125 -34.345625 4.3628125 -33.3671875 3.2265625 C-24.55350529 -5.61222992 -10.17928586 -7.04719791 0 0 Z "
     fill="#00A4FF"
     transform="translate(843.3046875,190.5234375)"
     id="path7" />
  <path
     d="M0 0 C8.58 0 17.16 0 26 0 C25.34419772 12.02612062 23.39482253 23.75397848 21.4375 35.625 C20.94299219 38.64498687 20.45004559 41.66521184 19.95973206 44.68588257 C19.65637411 46.55271449 19.35043636 48.41912949 19.04161072 50.2850647 C18.90469315 51.1237912 18.76777557 51.9625177 18.62670898 52.82666016 C18.50537094 53.56244293 18.3840329 54.29822571 18.25901794 55.05630493 C17.93395357 57.16880575 17.93395357 57.16880575 18 60 C20.85846007 57.17097124 23.71094984 54.33599221 26.5625 51.5 C27.36236328 50.70851562 28.16222656 49.91703125 28.98632812 49.1015625 C33.36612088 44.73964645 37.58930756 40.31160669 41.60522461 35.61132812 C44.71284542 32.02121832 44.71284542 32.02121832 48.07275391 31.77294922 C49.36101074 31.78342285 50.64926758 31.79389648 51.9765625 31.8046875 C52.66181 31.8075174 53.3470575 31.81034729 54.05307007 31.81326294 C56.24389027 31.82446719 58.43430316 31.84957141 60.625 31.875 C62.1093691 31.88502952 63.5937446 31.89415542 65.078125 31.90234375 C68.71888261 31.92440706 72.35940156 31.95893824 76 32 C72.09443903 37.49651716 67.90952662 42.32182472 63.0625 47 C58.14682366 51.82899709 53.42548396 56.71282325 49 62 C47.0032744 64.33614328 45.0018032 66.66820699 43 69 C45.1274922 72.36194864 47.25991089 75.72071926 49.39648438 79.0769043 C50.46992205 80.76519378 51.53970217 82.45580704 52.609375 84.14648438 C56.71395803 90.58839941 60.97382354 96.84181074 65.54882812 102.9597168 C67 105 67 105 67 106 C45.25478915 110.09455013 45.25478915 110.09455013 36 106 C27.3808051 99.51816994 22.19210605 88.18558984 17.45751953 78.75390625 C16.97653809 77.84511719 16.49555664 76.93632813 16 76 C15.67 76 15.34 76 15 76 C13.35 85.9 11.7 95.8 10 106 C1.09 106 -7.82 106 -17 106 C-14.45560097 86.41361897 -11.37409341 66.92072041 -8.27441406 47.41601562 C-7.51620067 42.64423517 -6.76327483 37.87163632 -6.01166344 33.0988121 C-5.42893172 29.40284525 -4.84313803 25.70736873 -4.25642776 22.01203156 C-3.97709793 20.24988347 -3.69880816 18.48757018 -3.42158127 16.72509003 C-3.03731951 14.28463465 -2.6488626 11.84488381 -2.25927734 9.40527344 C-2.08940056 8.31776291 -2.08940056 8.31776291 -1.91609192 7.20828247 C-1.11421917 2.22843834 -1.11421917 2.22843834 0 0 Z "
     fill="#00A4FF"
     transform="translate(625,38)"
     id="path8" />
  <path
     d="M0 0 C6.55833473 7.01589296 9.00546339 15.17277917 8.90576172 24.60595703 C8.45492289 31.35845357 7.27503601 38.02703063 6.17895508 44.69995117 C5.74723817 47.32932091 5.32678805 49.96030764 4.90820312 52.59179688 C4.63866571 54.26833297 4.36850599 55.94476916 4.09765625 57.62109375 C3.90853416 58.79761757 3.90853416 58.79761757 3.71559143 59.99790955 C3.21155219 63.05569688 2.66934817 65.92945549 1.6875 68.875 C-6.5625 68.875 -14.8125 68.875 -23.3125 68.875 C-23.3125 66.565 -23.3125 64.255 -23.3125 61.875 C-23.725 62.27332031 -24.1375 62.67164063 -24.5625 63.08203125 C-30.0530258 68.11909845 -34.80376092 70.54083437 -42.25 71.25 C-51.02934519 70.82048213 -57.41998803 67.30077097 -63.3125 60.875 C-67.12892848 56.08791919 -68.54554219 50.92396455 -68.3125 44.875 C-67.35350398 38.76770954 -65.12681319 34.80619828 -60.18359375 31.0859375 C-47.33594072 22.77117249 -30.9426261 24.63327194 -16.3125 24.875 C-16.54110058 23.41315942 -16.79620392 21.95544581 -17.0625 20.5 C-17.20171875 19.68789062 -17.3409375 18.87578125 -17.484375 18.0390625 C-18.12737773 15.73570565 -18.12737773 15.73570565 -20.20336914 14.60693359 C-31.49396174 10.68874901 -43.87803203 15.62462956 -54.3125 19.875 C-55.17750888 17.27398714 -56.02976928 14.66993589 -56.875 12.0625 C-57.12185547 11.32451172 -57.36871094 10.58652344 -57.62304688 9.82617188 C-59.42578125 4.21484375 -59.42578125 4.21484375 -58.3125 0.875 C-51.79266557 -2.69185747 -44.6320157 -4.95225992 -37.3125 -6.125 C-36.30896484 -6.30869141 -36.30896484 -6.30869141 -35.28515625 -6.49609375 C-22.76220842 -8.38503001 -10.68368517 -6.85368482 0 0 Z M-42.3125 41.875 C-42.89619443 45.29038144 -42.89619443 45.29038144 -42.3125 48.875 C-40.17766815 51.5607562 -38.58350736 52.64836817 -35.1875 53.25390625 C-29.77482541 53.53734022 -26.47952532 52.54595087 -22.3125 48.875 C-19.33539945 45.07663033 -18.77854349 41.62864364 -18.3125 36.875 C-31.27454972 36.08889543 -31.27454972 36.08889543 -42.3125 41.875 Z M-22.3125 58.875 C-21.3125 60.875 -21.3125 60.875 -21.3125 60.875 Z "
     fill="#00A4FF"
     transform="translate(540.3125,75.125)"
     id="path9" />
  <path
     d="M0 0 C7.02291497 7.76651773 9.39158402 17.11862796 9.29296875 27.4140625 C9.0680341 30.54222347 8.56853098 33.64528312 8.125 36.75 C-8.375 36.75 -24.875 36.75 -41.875 36.75 C-38.66791667 44.29516756 -38.66791667 44.29516756 -32.875 47.75 C-22.47897192 50.80383325 -11.58120269 47.81635085 -1.875 43.75 C0.44830984 49.35526694 2.59245644 54.87524968 4.125 60.75 C-10.96634797 69.15220995 -25.77876499 72.19225934 -42.6953125 67.8515625 C-52.28004911 64.53105178 -59.17829571 58.80734455 -63.86328125 49.86328125 C-68.65691099 39.38999541 -67.62793488 28.36174691 -63.875 17.75 C-59.52076437 6.46124096 -51.51040163 -0.20856889 -40.73828125 -5.25 C-27.87378689 -10.50700359 -10.5152503 -9.75779583 0 0 Z M-35.875 13.75 C-38.21155533 16.96276358 -39.875 19.67238228 -39.875 23.75 C-30.635 23.75 -21.395 23.75 -11.875 23.75 C-11.875 17.57266335 -12.15942706 16.29125581 -15.875 11.75 C-22.36262212 7.69178531 -30.3670599 8.63548419 -35.875 13.75 Z "
     fill="#00A4FF"
     transform="translate(702.875,194.25)"
     id="path10" />
  <path
     d="M0 0 C1.084021 0.00523682 2.16804199 0.01047363 3.28491211 0.01586914 C4.45473633 0.0190918 5.62456055 0.02231445 6.82983398 0.02563477 C8.0615332 0.03401367 9.29323242 0.04239258 10.56225586 0.05102539 C12.41560547 0.05779297 12.41560547 0.05779297 14.30639648 0.06469727 C17.37089703 0.07652931 20.43530307 0.09301366 23.49975586 0.11352539 C23.38231967 1.73908952 23.25526125 3.36395827 23.12475586 4.98852539 C23.05514648 5.89344727 22.98553711 6.79836914 22.91381836 7.73071289 C22.36308917 12.23006648 21.38873724 16.66861848 20.49975586 21.11352539 C27.42975586 21.11352539 34.35975586 21.11352539 41.49975586 21.11352539 C41.0130205 28.25231063 40.25713544 34.08400707 38.49975586 41.11352539 C31.56975586 41.11352539 24.63975586 41.11352539 17.49975586 41.11352539 C16.99387634 44.63360368 16.49487548 48.15443134 15.99975586 51.67602539 C15.85666992 52.66666992 15.71358398 53.65731445 15.56616211 54.67797852 C13.71483959 63.93499204 13.71483959 63.93499204 16.07788086 72.53540039 C19.29961274 74.63472246 21.43732165 74.51602276 25.24975586 74.36352539 C26.42022461 74.32743164 27.59069336 74.29133789 28.79663086 74.25415039 C29.68866211 74.20774414 30.58069336 74.16133789 31.49975586 74.11352539 C32.37996955 80.82515477 32.61357541 87.3475852 32.49975586 94.11352539 C21.76390734 98.52994468 10.30860886 98.31603433 -0.50024414 94.11352539 C-6.54583142 90.95052796 -9.82164297 86.63858785 -12.75024414 80.48852539 C-14.82470192 71.15346539 -13.19466724 61.63705719 -11.50024414 52.36352539 C-11.30946289 51.27297852 -11.11868164 50.18243164 -10.92211914 49.05883789 C-10.45719998 46.40879867 -9.98002968 43.76091345 -9.50024414 41.11352539 C-14.12024414 41.11352539 -18.74024414 41.11352539 -23.50024414 41.11352539 C-22.51024414 34.51352539 -21.52024414 27.91352539 -20.50024414 21.11352539 C-15.88024414 21.11352539 -11.26024414 21.11352539 -6.50024414 21.11352539 C-6.2952832 19.68137695 -6.09032227 18.24922852 -5.87915039 16.77368164 C-5.60723281 14.90776447 -5.33508555 13.04188075 -5.06274414 11.17602539 C-4.92803711 10.23049805 -4.79333008 9.2849707 -4.65454102 8.31079102 C-4.52241211 7.41166992 -4.3902832 6.51254883 -4.25415039 5.58618164 C-4.13370361 4.75352783 -4.01325684 3.92087402 -3.88916016 3.06298828 C-3.3056151 0.13793662 -3.03988522 0.13802818 0 0 Z "
     fill="#00A4FF"
     transform="translate(1067.500244140625,166.886474609375)"
     id="path11" />
  <path
     d="M0 0 C-3.465 8.415 -3.465 8.415 -7 17 C-10 17 -10 17 -12.8125 15.5 C-18.52579678 12.94854909 -24.89775779 13.34801974 -31 14 C-35.99915096 16.24099871 -38.29559051 19.29232421 -41 24 C-42.14888581 27.44665742 -42.2039347 30.24351905 -42.25 33.875 C-42.27578125 35.08929688 -42.3015625 36.30359375 -42.328125 37.5546875 C-41.97291955 41.28434469 -41.31739234 43.08625839 -39 46 C-33.30245013 49.76207645 -27.30535729 49.02026681 -20.89453125 47.8359375 C-17.69111287 46.91079373 -14.93332703 45.57313242 -12 44 C-11.13521219 46.76791945 -10.28288326 49.53865626 -9.4375 52.3125 C-9.0672168 53.49102539 -9.0672168 53.49102539 -8.68945312 54.69335938 C-8.46064453 55.45068359 -8.23183594 56.20800781 -7.99609375 56.98828125 C-7.78138428 57.68477783 -7.5666748 58.38127441 -7.34545898 59.09887695 C-7 61 -7 61 -8 64 C-18.71942145 70.86140644 -33.03234788 71.49507463 -45.125 68.875 C-54.70793176 66.17823256 -61.91790526 61.66648605 -67 53 C-72.44717655 42.81335094 -71.95762636 31.75618486 -68.9765625 20.890625 C-67.50777292 16.54300785 -65.55795561 12.80018117 -63 9 C-62.59265625 8.38511719 -62.1853125 7.77023438 -61.765625 7.13671875 C-56.24926831 -0.18056615 -46.90845388 -5.28683579 -38 -7 C-36.845 -7.226875 -35.69 -7.45375 -34.5 -7.6875 C-22.28623615 -8.9681665 -9.95437369 -7.46578027 0 0 Z "
     fill="#00A4FF"
     transform="translate(528,194)"
     id="path12" />
  <path
     d="M0 0 C-0.13888506 3.27116732 -0.28730492 6.541834 -0.4375 9.8125 C-0.47681641 10.74126953 -0.51613281 11.67003906 -0.55664062 12.62695312 C-0.59853516 13.51962891 -0.64042969 14.41230469 -0.68359375 15.33203125 C-0.72025146 16.15421143 -0.75690918 16.9763916 -0.79467773 17.82348633 C-1 20 -1 20 -2 23 C-2.6705542 23.08040527 -3.3411084 23.16081055 -4.03198242 23.24365234 C-7.08472251 23.61372944 -10.13607249 23.99425799 -13.1875 24.375 C-14.24259766 24.50132812 -15.29769531 24.62765625 -16.38476562 24.7578125 C-17.40634766 24.88671875 -18.42792969 25.015625 -19.48046875 25.1484375 C-20.41785889 25.26364746 -21.35524902 25.37885742 -22.32104492 25.49755859 C-25.14273757 26.02677061 -27.44605594 26.68226325 -30 28 C-33.92482059 36.43741623 -34.68901963 46.24690948 -36.125 55.375 C-36.52024607 57.85190749 -36.91763058 60.32844624 -37.31759644 62.80459595 C-37.56448692 64.33662554 -37.80836962 65.86914367 -38.04885864 67.40219116 C-38.52322917 70.37424653 -39.04615792 73.13847375 -40 76 C-48.91 76 -57.82 76 -67 76 C-65.48946461 61.86865249 -63.32805977 47.87459674 -61.05883789 33.84667969 C-60.42996847 29.95337255 -59.80942406 26.05879546 -59.18945312 22.1640625 C-58.79215996 19.69262898 -58.39439158 17.2212718 -57.99609375 14.75 C-57.81066513 13.58355957 -57.62523651 12.41711914 -57.43418884 11.21533203 C-57.26053299 10.14911621 -57.08687714 9.08290039 -56.90795898 7.984375 C-56.75632797 7.04303711 -56.60469696 6.10169922 -56.44847107 5.13183594 C-56 3 -56 3 -55 2 C-53.07332493 1.91251793 -51.14348139 1.89302666 -49.21484375 1.90234375 C-48.04501953 1.90556641 -46.87519531 1.90878906 -45.66992188 1.91210938 C-44.43822266 1.92048828 -43.20652344 1.92886719 -41.9375 1.9375 C-40.08415039 1.94426758 -40.08415039 1.94426758 -38.19335938 1.95117188 C-35.12885883 1.96300392 -32.06445279 1.97948827 -29 2 C-29.33 5.3 -29.66 8.6 -30 12 C-29.34 11.278125 -28.68 10.55625 -28 9.8125 C-19.85232258 1.77893571 -11.21652658 -0.15101811 0 0 Z "
     fill="#00A4FF"
     transform="translate(778,186)"
     id="path13" />
  <path
     d="M0 0 C-0.13888506 3.27116732 -0.28730492 6.541834 -0.4375 9.8125 C-0.47681641 10.74126953 -0.51613281 11.67003906 -0.55664062 12.62695312 C-0.59853516 13.51962891 -0.64042969 14.41230469 -0.68359375 15.33203125 C-0.72025146 16.15421143 -0.75690918 16.9763916 -0.79467773 17.82348633 C-1 20 -1 20 -2 23 C-2.6705542 23.08040527 -3.3411084 23.16081055 -4.03198242 23.24365234 C-7.08472251 23.61372944 -10.13607249 23.99425799 -13.1875 24.375 C-14.24259766 24.50132813 -15.29769531 24.62765625 -16.38476562 24.7578125 C-17.40634766 24.88671875 -18.42792969 25.015625 -19.48046875 25.1484375 C-20.41785889 25.26364746 -21.35524902 25.37885742 -22.32104492 25.49755859 C-25.14273757 26.02677061 -27.44605594 26.68226325 -30 28 C-33.92482059 36.43741623 -34.68901963 46.24690948 -36.125 55.375 C-36.52024607 57.85190749 -36.91763058 60.32844624 -37.31759644 62.80459595 C-37.56448692 64.33662554 -37.80836962 65.86914367 -38.04885864 67.40219116 C-38.52322917 70.37424653 -39.04615792 73.13847375 -40 76 C-48.91 76 -57.82 76 -67 76 C-65.48946461 61.86865249 -63.32805977 47.87459674 -61.05883789 33.84667969 C-60.42996847 29.95337255 -59.80942406 26.05879546 -59.18945312 22.1640625 C-58.79215996 19.69262898 -58.39439158 17.2212718 -57.99609375 14.75 C-57.81066513 13.58355957 -57.62523651 12.41711914 -57.43418884 11.21533203 C-57.26053299 10.14911621 -57.08687714 9.08290039 -56.90795898 7.984375 C-56.75632797 7.04303711 -56.60469696 6.10169922 -56.44847107 5.13183594 C-56 3 -56 3 -55 2 C-53.07332493 1.91251793 -51.14348139 1.89302666 -49.21484375 1.90234375 C-48.04501953 1.90556641 -46.87519531 1.90878906 -45.66992188 1.91210938 C-44.43822266 1.92048828 -43.20652344 1.92886719 -41.9375 1.9375 C-40.08415039 1.94426758 -40.08415039 1.94426758 -38.19335938 1.95117188 C-35.12885883 1.96300392 -32.06445279 1.97948827 -29 2 C-29.33 5.3 -29.66 8.6 -30 12 C-29.34 11.278125 -28.68 10.55625 -28 9.8125 C-19.85232258 1.77893571 -11.21652658 -0.15101811 0 0 Z "
     fill="#00A4FF"
     transform="translate(616,68)"
     id="path14" />
  <path
     d=""
     fill="#00A4FF"
     transform="translate(0,0)"
     id="path18" />
  <g
     id="g20"
     transform="translate(150.14992,-178.09598)">
    <circle
       style="fill:#00a4ff;fill-opacity:1"
       id="path19-9"
       cx="-52.480747"
       cy="262.71072"
       r="6.5940218" />
    <circle
       style="fill:#00a4ff;fill-opacity:1"
       id="path19-9-2"
       cx="-35.292706"
       cy="262.71072"
       r="6.5940218" />
    <circle
       style="fill:#00a4ff;fill-opacity:1"
       id="path19-9-7"
       cx="-69.480743"
       cy="-262.71072"
       r="6.5940218"
       transform="scale(1,-1)" />
  </g>
  <text
     xml:space="preserve"
     style="fill:#ffffff;fill-opacity:1;stroke-width:0.377;stroke-dasharray:none"
     x="112.66357"
     y="141.30046"
     id="text29"><tspan
       sodipodi:role="line"
       id="tspan29"></tspan></text>
  <text
     xml:space="preserve"
     style="font-style:normal;font-variant:normal;font-weight:bold;font-stretch:normal;font-size:74.6667px;line-height:0;font-family:'Arial Black';-inkscape-font-specification:'Arial Black,  Bold';fill:#ffffff;fill-opacity:1;stroke-width:0.377;stroke-dasharray:none"
     x="88.171486"
     y="108.89556"
     id="text31"><tspan
       sodipodi:role="line"
       id="tspan31"></tspan></text>
  <path
     id="rect35"
     style="fill:#00a4ff;fill-opacity:1;stroke-width:0.460614;stroke-dasharray:none"
     d="M 80.527344 96.931641 C 75.329085 96.931641 71.142578 101.47257 71.142578 107.11328 L 71.142578 211.23633 C 71.142578 216.87704 75.329085 221.41797 80.527344 221.41797 L 223.99219 221.41797 C 229.19044 221.41797 233.37695 216.87704 233.37695 211.23633 L 233.37695 107.11328 C 233.37695 101.47257 229.19044 96.931641 223.99219 96.931641 L 80.527344 96.931641 z M 167.80078 121.94336 C 168.12257 121.93275 168.44436 121.94141 168.76758 121.96875 C 170.05837 122.0229 171.18186 122.3957 172.13867 123.08789 C 173.16685 123.77389 173.77631 124.74497 173.9668 126.00195 C 174.06308 126.65804 173.95055 127.44344 173.62695 128.35742 C 173.30128 129.21622 172.90383 130.10879 172.4375 131.03516 C 172.04046 131.90014 171.60733 132.71186 171.13477 133.47266 C 170.66221 134.23345 170.35891 134.75855 170.22656 135.04688 L 167.23242 141.12109 C 166.23255 143.09039 165.23413 145.08684 164.23633 147.11133 C 160.70939 154.22772 157.18135 161.31575 153.65234 168.37695 C 150.19262 175.37678 146.66104 182.38428 143.05859 189.39648 C 142.52505 190.43942 141.62355 191.20929 140.35352 191.70703 C 139.15693 192.25378 137.87791 192.4762 136.51367 192.37305 C 135.2208 192.26371 134.02337 191.86731 132.92383 191.1875 C 131.89773 190.55669 131.28827 189.58561 131.0957 188.27344 C 130.89691 186.7957 131.16692 185.41703 131.90625 184.13477 C 132.71695 182.84631 133.48772 181.45029 134.21875 179.94727 C 135.21655 177.92278 136.21692 175.92633 137.2168 173.95703 L 140.20898 167.88281 C 140.47576 167.36135 140.87478 166.55125 141.40625 165.45312 C 142.00908 164.34881 142.64466 163.13204 143.31055 161.80078 C 143.97644 160.46952 144.64087 159.10911 145.30469 157.72266 C 146.03779 156.27483 146.70393 154.972 147.30469 153.8125 C 147.90544 152.653 148.37134 151.69959 148.70117 150.95117 L 149.29883 149.73633 C 151.36579 145.68116 153.39881 141.65589 155.39648 137.66211 C 157.39208 133.61314 159.38905 129.59144 161.38672 125.59766 L 161.79688 125.06445 C 162.61172 123.88638 163.6538 123.04853 164.92383 122.55078 C 165.87635 122.17747 166.83541 121.97518 167.80078 121.94336 z M 117.45898 131.2168 C 118.12221 131.25265 118.74085 131.39553 119.31445 131.64648 C 120.46166 132.14839 121.3586 132.90245 122.00391 133.90625 C 122.64921 134.91005 123.00838 136.05705 123.08008 137.34766 C 123.22348 138.63825 122.97147 139.89242 122.32617 141.11133 C 121.96767 141.82833 121.42989 142.54667 120.71289 143.26367 C 120.06759 143.90897 119.31548 144.55392 118.45508 145.19922 C 117.66637 145.77282 116.87659 146.3106 116.08789 146.8125 C 115.37089 147.3144 114.76167 147.74501 114.25977 148.10352 C 112.25216 149.68091 110.24589 151.22086 108.23828 152.72656 C 106.30237 154.23227 104.3656 155.77416 102.42969 157.35156 C 105.79959 159.64597 109.06198 162.04909 112.2168 164.55859 C 115.4433 167.06811 118.66998 169.5407 121.89648 171.97852 L 122.32617 172.51758 C 123.18658 173.80818 123.61719 175.16951 123.61719 176.60352 C 123.61719 177.96581 123.25801 179.18426 122.54102 180.25977 C 121.82401 181.26356 120.8199 182.01763 119.5293 182.51953 C 118.31039 183.02143 116.87761 183.05716 115.22852 182.62695 C 113.93791 182.26845 112.75519 181.65923 111.67969 180.79883 C 110.60418 179.93842 109.52863 179.11292 108.45312 178.32422 C 105.94362 176.46001 103.46906 174.59663 101.03125 172.73242 C 98.593441 170.86821 96.120838 169.00288 93.611328 167.13867 C 92.894326 166.56507 91.997379 165.95585 90.921875 165.31055 C 89.918071 164.66524 88.949681 163.94886 88.017578 163.16016 C 87.085475 162.29975 86.333367 161.36709 85.759766 160.36328 C 85.186163 159.35948 84.969881 158.2482 85.113281 157.0293 C 85.400083 155.16509 86.154142 153.73037 87.373047 152.72656 C 88.663652 151.65106 90.02498 150.5755 91.458984 149.5 C 93.896794 147.63579 96.299907 145.73669 98.666016 143.80078 L 105.97852 137.99219 C 107.41251 136.84498 108.84724 135.59081 110.28125 134.22852 C 111.78696 132.86621 113.47173 131.93354 115.33594 131.43164 C 116.08879 131.25239 116.79577 131.18095 117.45898 131.2168 z M 186.90625 131.24414 C 187.56948 131.19037 188.2784 131.25239 189.03125 131.43164 C 190.32186 131.71844 191.54029 132.36534 192.6875 133.36914 C 193.83471 134.30124 194.91026 135.16052 195.91406 135.94922 L 200.86133 139.82031 C 202.51044 141.11092 204.1595 142.43847 205.80859 143.80078 C 206.8841 144.66119 207.63816 145.2704 208.06836 145.62891 C 208.57026 145.98741 209.00087 146.34658 209.35938 146.70508 C 209.78957 146.99188 210.28968 147.34909 210.86328 147.7793 C 211.43688 148.2095 212.29811 148.89211 213.44531 149.82422 C 214.80762 150.82802 216.02606 151.83019 217.10156 152.83398 C 218.24877 153.76609 219.00283 155.09365 219.36133 156.81445 C 219.57643 158.03336 219.39587 159.18035 218.82227 160.25586 C 218.24866 161.25966 217.49656 162.19234 216.56445 163.05273 C 215.70405 163.84144 214.73566 164.55783 213.66016 165.20312 C 212.58465 165.84843 211.68771 166.45765 210.9707 167.03125 C 208.4612 168.89546 205.98859 170.76079 203.55078 172.625 C 201.11297 174.48921 198.63841 176.35259 196.12891 178.2168 C 195.0534 179.0055 193.97785 179.831 192.90234 180.69141 C 191.82684 181.62351 190.64411 182.26845 189.35352 182.62695 C 187.56101 183.12886 186.01911 183.12886 184.72852 182.62695 C 183.43791 182.12505 182.47147 181.33526 181.82617 180.25977 C 181.18087 179.18426 180.89314 177.9301 180.96484 176.49609 C 181.03654 174.9904 181.5386 173.51994 182.4707 172.08594 L 183.00781 171.65625 C 186.23433 169.29014 189.38954 166.88898 192.47266 164.45117 C 195.62746 162.01336 198.81842 159.64597 202.04492 157.35156 C 200.10901 155.77416 198.17224 154.23227 196.23633 152.72656 C 194.30042 151.22086 192.32986 149.71664 190.32227 148.21094 C 189.82036 147.85244 189.17542 147.42182 188.38672 146.91992 C 187.66972 146.41802 186.91566 145.88024 186.12695 145.30664 C 185.33825 144.66134 184.58614 144.0164 183.86914 143.37109 C 183.15214 142.72579 182.61436 142.04318 182.25586 141.32617 C 181.61056 140.10727 181.32283 138.85311 181.39453 137.5625 C 181.46623 136.27189 181.78968 135.1249 182.36328 134.12109 C 183.00858 133.04559 183.90554 132.25776 185.05273 131.75586 C 185.62634 131.46906 186.24302 131.29792 186.90625 131.24414 z " />
</svg>
