<?xml version="1.0" encoding="UTF-8"?>
<svg version="1.1" xmlns="http://www.w3.org/2000/svg" width="1109" height="303">
<path d="M0 0 C0.85790131 -0.00807175 1.71580261 -0.01614349 2.59970093 -0.02445984 C4.42028812 -0.03827167 6.2409009 -0.04900676 8.06152344 -0.05688477 C9.88614735 -0.06828465 11.7107412 -0.08854034 13.53515625 -0.1184082 C51.80444719 -0.74342673 88.23515824 14.30369119 116.2109375 40.23828125 C117.11585938 41.07230469 118.02078125 41.90632813 118.953125 42.765625 C140.64662434 63.6143619 154.39290487 91.18429516 161.2109375 120.23828125 C161.50242676 121.40786377 161.50242676 121.40786377 161.79980469 122.60107422 C163.67071436 131.16690577 163.58312694 139.81540567 163.58154297 148.54150391 C163.58588395 151.20541945 163.62221013 153.86762954 163.66015625 156.53125 C163.82131597 181.05887923 156.86776333 203.79909405 145.2109375 225.23828125 C144.65664063 226.285 144.10234375 227.33171875 143.53125 228.41015625 C130.8015188 251.43330646 111.35403085 269.48349929 89.2109375 283.23828125 C88.63424316 283.59809082 88.05754883 283.95790039 87.46337891 284.32861328 C56.19565552 303.41224245 13.79371416 308.67319307 -21.75390625 300.5625 C-47.06739513 294.12904639 -68.9417162 283.26858485 -88.7890625 266.23828125 C-89.89507812 265.33335937 -89.89507812 265.33335937 -91.0234375 264.41015625 C-92.65278535 263.06757362 -94.2284472 261.66017519 -95.7890625 260.23828125 C-95.7890625 259.57828125 -95.7890625 258.91828125 -95.7890625 258.23828125 C-96.4490625 258.23828125 -97.1090625 258.23828125 -97.7890625 258.23828125 C-100.37188379 255.80954873 -102.54431325 252.97679235 -104.7890625 250.23828125 C-105.55863281 249.305 -106.32820313 248.37171875 -107.12109375 247.41015625 C-121.65344027 229.19323053 -131.20314053 208.81799401 -136.7890625 186.23828125 C-136.95422363 185.58972168 -137.11938477 184.94116211 -137.28955078 184.27294922 C-142.30903684 163.59806508 -142.10765241 137.81974284 -136.7890625 117.23828125 C-136.49104736 116.05999756 -136.49104736 116.05999756 -136.18701172 114.85791016 C-130.09548795 91.43634349 -119.81021345 70.47120172 -103.7890625 52.23828125 C-103.07105469 51.39910156 -102.35304687 50.55992188 -101.61328125 49.6953125 C-87.17201652 33.15070193 -69.74419514 21.21501144 -49.7890625 12.23828125 C-48.603125 11.69558594 -47.4171875 11.15289062 -46.1953125 10.59375 C-35.73444459 6.1023991 -24.89792006 3.58716904 -13.7890625 1.23828125 C-13.05139648 1.05797363 -12.31373047 0.87766602 -11.55371094 0.69189453 C-7.69926378 0.05947111 -3.90051709 0.03550942 0 0 Z M-69.7890625 76.23828125 C-72.10436369 79.71123303 -72.04370626 81.0474205 -72.05648804 85.14608765 C-72.06501801 86.37986649 -72.07354797 87.61364532 -72.08233643 88.8848114 C-72.08163738 90.25442518 -72.08071431 91.62403885 -72.07958984 92.99365234 C-72.08557338 94.43424326 -72.09237852 95.87483096 -72.09994507 97.31541443 C-72.11763062 101.23075399 -72.12230153 105.14600617 -72.12357664 109.06138182 C-72.12547491 112.32927711 -72.13283164 115.59715202 -72.13992083 118.86503947 C-72.15621226 126.57507587 -72.16108912 134.28506555 -72.15966797 141.99511719 C-72.15846646 149.94941898 -72.17956826 157.90344946 -72.2111553 165.85768259 C-72.23730455 172.68580318 -72.24803583 179.51383509 -72.24675715 186.34200537 C-72.24624709 190.42060924 -72.25195395 194.49897208 -72.27311325 198.57752609 C-72.29247298 202.41403929 -72.29263603 206.250081 -72.27807999 210.08661079 C-72.2759879 211.49389522 -72.28071666 212.90120897 -72.2928009 214.30844307 C-72.30824026 216.23107172 -72.29655221 218.15386096 -72.28353882 220.07650757 C-72.28462835 221.1520307 -72.28571789 222.22755383 -72.28684044 223.33566856 C-71.66700583 226.95001071 -70.30587346 228.6213626 -67.7890625 231.23828125 C-64.90913248 232.67824626 -62.42391145 232.37760192 -59.20426941 232.3921814 C-58.52005159 232.39656365 -57.83583377 232.4009459 -57.13088208 232.40546095 C-54.82707947 232.41886714 -52.52331511 232.42503185 -50.21948242 232.43115234 C-48.57214687 232.43905183 -46.92481306 232.44732069 -45.27748108 232.45593262 C-39.85818132 232.48216878 -34.43887377 232.49746106 -29.01953125 232.51171875 C-27.15549527 232.51707763 -25.29145935 232.52245513 -23.42742348 232.5278511 C-15.67509602 232.54948147 -7.92277066 232.56821923 -0.17042065 232.5794735 C10.94809561 232.59571951 22.06626275 232.62891122 33.18464738 232.68587434 C40.99786477 232.72454252 48.81098865 232.74410243 56.62429923 232.74939406 C61.29319225 232.7530516 65.96171307 232.76511541 70.6305027 232.7974968 C75.02268885 232.82752292 79.41427653 232.83390897 83.80654335 232.82211304 C85.41863737 232.82189185 87.03075872 232.83023449 88.64275742 232.84776688 C90.84429247 232.87040794 93.04364797 232.86219041 95.24519348 232.84628296 C97.09271823 232.85124818 97.09271823 232.85124818 98.97756672 232.85631371 C103.11092301 232.06625636 104.5772664 230.44131614 107.2109375 227.23828125 C108.54556174 224.56903277 108.34911284 222.52365653 108.36483765 219.53338623 C108.37343811 218.31925552 108.38203857 217.10512482 108.39089966 215.85420227 C108.39533503 214.50143475 108.39963337 213.14866678 108.40380859 211.79589844 C108.41170887 210.37678323 108.41997777 208.95767003 108.42858887 207.53855896 C108.45481961 202.8707776 108.47011843 198.20298723 108.484375 193.53515625 C108.48973442 191.92869308 108.49511193 190.32222996 108.50050735 188.71576691 C108.52213843 182.03316399 108.54087498 175.35056349 108.55212975 168.66793442 C108.56836748 159.08935638 108.601538 149.51118411 108.65853059 139.93275905 C108.69723183 133.19892264 108.71676268 126.46519475 108.72205031 119.73125005 C108.72570383 115.70896231 108.73772418 111.68710724 108.77015305 107.66493988 C108.80023705 103.87927645 108.80654484 100.09430736 108.79476929 96.30854988 C108.79454857 94.9210177 108.80285259 93.53345328 108.82042313 92.14603233 C109.18080876 83.80458041 109.18080876 83.80458041 105.92446899 76.42828369 C101.59719975 72.93588634 98.05736066 73.11151956 92.58218384 73.09783936 C91.9173805 73.09486823 91.25257716 73.09189711 90.56762826 73.08883595 C88.34145944 73.08016893 86.11534451 73.07864241 83.88916016 73.07714844 C82.29241318 73.07251891 80.69566731 73.06749407 79.09892273 73.06210327 C74.7621186 73.04899171 70.42532994 73.04253694 66.08850908 73.03809261 C63.37880146 73.03516036 60.66909805 73.0310553 57.95939255 73.02658844 C49.48049077 73.01291785 41.00159864 73.0032486 32.5226866 72.99938655 C22.7362582 72.99490433 12.94996936 72.97734702 3.1635834 72.94838595 C-4.40256104 72.92677257 -11.9686662 72.91668248 -19.53484118 72.91534543 C-24.05328464 72.91429731 -28.57159683 72.9083879 -33.09000778 72.89052582 C-37.34012657 72.87405068 -41.59001531 72.87188687 -45.84015465 72.88066483 C-47.39859953 72.88143545 -48.95705676 72.87708904 -50.5154705 72.86720657 C-52.64603436 72.85448982 -54.77578301 72.86036155 -56.90634155 72.87078857 C-58.09763357 72.86932201 -59.28892559 72.86785545 -60.51631737 72.86634445 C-64.23205032 73.28862537 -66.6173324 74.27917977 -69.7890625 76.23828125 Z " fill="#00A4FF" transform="translate(139.7890625,-0.23828125)"/>
<path d="M0 0 C52.47 0 104.94 0 159 0 C159.020625 20.109375 159.04125 40.21875 159.0625 60.9375 C159.071604 67.29765381 159.08070801 73.65780762 159.09008789 80.21069336 C159.09460449 87.95031738 159.09460449 87.95031738 159.09544373 91.56837463 C159.09698385 94.1066658 159.10051017 96.64495622 159.10557556 99.1832428 C159.11284845 103.01792684 159.11390757 106.852566 159.11352539 110.68725586 C159.1171235 111.82659797 159.12072161 112.96594007 159.12442875 114.1398077 C159.12305125 115.16556188 159.12167376 116.19131605 159.12025452 117.24815369 C159.12163721 118.59627593 159.12163721 118.59627593 159.12304783 119.97163296 C159 122 159 122 158 123 C155.97735927 123.09895546 153.95120728 123.12632292 151.92614746 123.12698364 C151.28488088 123.12854363 150.6436143 123.13010362 149.9829154 123.13171089 C147.81866551 123.13572244 145.65448488 123.13253066 143.49023438 123.12939453 C141.94493061 123.1307485 140.39962717 123.13252841 138.85432434 123.13470459 C134.64576495 123.1392794 130.43722996 123.13748917 126.22867012 123.1343255 C121.83420875 123.13180215 117.43974953 123.13413937 113.04528809 123.13571167 C105.66414005 123.13753344 98.28300199 123.13512687 90.90185547 123.13037109 C82.3557262 123.12492846 73.80962079 123.12669111 65.26349211 123.1321975 C57.93952336 123.13672842 50.61556182 123.13737928 43.29159212 123.13475883 C38.91136566 123.13319594 34.53115043 123.13300261 30.15092468 123.13629532 C26.03388535 123.13917374 21.91687691 123.13719889 17.79984093 123.13140106 C16.28445678 123.1300733 14.76907005 123.13046784 13.2536869 123.13266373 C11.19370643 123.13537463 9.13382652 123.13199488 7.07385254 123.12698364 C5.91830116 123.12660662 4.76274979 123.12622959 3.5721817 123.12584114 C1 123 1 123 0 122 C-0.09594225 120.41845152 -0.1218796 118.83260875 -0.12025452 117.24815369 C-0.12163201 116.22239951 -0.12300951 115.19664534 -0.12442875 114.1398077 C-0.12083064 113.00046559 -0.11723253 111.86112349 -0.11352539 110.68725586 C-0.11370619 108.87314508 -0.11370619 108.87314508 -0.11389065 107.0223856 C-0.11314104 103.08651995 -0.10551062 99.15070098 -0.09765625 95.21484375 C-0.09618698 92.79333519 -0.09516618 90.37182632 -0.09460449 87.95031738 C-0.08934988 78.9460401 -0.07538882 69.9417696 -0.0625 60.9375 C-0.041875 40.828125 -0.02125 20.71875 0 0 Z M85 28 C82.57320999 30.91053421 81.43234143 33.29209084 80.54199219 36.96459961 C80.29874207 37.94919662 80.05549194 38.93379364 79.80487061 39.94822693 C79.55473206 41.00558548 79.30459351 42.06294403 79.046875 43.15234375 C78.78239563 44.24462784 78.51791626 45.33691193 78.24542236 46.46229553 C77.68944091 48.77018718 77.13834802 51.07926121 76.59179688 53.3894043 C75.75316201 56.92417244 74.89329565 60.45329947 74.03125 63.98242188 C73.49350322 66.22625411 72.95700283 68.47038549 72.421875 70.71484375 C72.16363953 71.77017807 71.90540405 72.82551239 71.63934326 73.91282654 C71.29338104 75.3944503 71.29338104 75.3944503 70.94042969 76.90600586 C70.63090363 78.20362099 70.63090363 78.20362099 70.31512451 79.52745056 C69.9663223 82.26424407 70.31906306 84.34142658 71 87 C73.475 86.505 73.475 86.505 76 86 C78.26908607 79.53655395 80.0994527 73.03279008 81.734375 66.3828125 C81.97665833 65.40384003 82.21894165 64.42486755 82.46856689 63.41622925 C82.97468795 61.36456484 83.47879193 59.31240187 83.98095703 57.25976562 C84.75341487 54.11108035 85.53859719 50.96573563 86.32421875 47.8203125 C86.81588408 45.82050408 87.30679661 43.82051041 87.796875 41.8203125 C88.03323669 40.87970978 88.26959839 39.93910706 88.51312256 38.97000122 C88.72374329 38.0983432 88.93436401 37.22668518 89.15136719 36.32861328 C89.339953 35.56300079 89.52853882 34.79738831 89.72283936 34.00857544 C90.17890807 31.79849384 90.17890807 31.79849384 89 29 C86.98491642 28.26676204 86.98491642 28.26676204 85 28 Z M56.62109375 39.703125 C55.65285423 40.12171783 55.65285423 40.12171783 54.66505432 40.54876709 C53.29185004 41.14308708 51.9190543 41.73835175 50.54663086 42.33447266 C48.47182565 43.23509999 46.39520376 44.13143067 44.31835938 45.02734375 C37.79063018 47.85235078 31.31403959 50.71702446 25 54 C25 56.64 25 59.28 25 62 C33.26520908 66.22493761 41.62333539 70.15046122 50.125 73.875 C51.24648437 74.37257812 52.36796875 74.87015625 53.5234375 75.3828125 C54.59078125 75.85203125 55.658125 76.32125 56.7578125 76.8046875 C57.7183252 77.22733887 58.67883789 77.64999023 59.66845703 78.08544922 C61.89289859 79.12172124 61.89289859 79.12172124 64 79 C64 75.7 64 72.4 64 69 C59.87723451 67.32776718 55.75143325 65.66315937 51.625 64 C50.449375 63.52304688 49.27375 63.04609375 48.0625 62.5546875 C46.94101563 62.10351562 45.81953125 61.65234375 44.6640625 61.1875 C43.62717285 60.76855469 42.5902832 60.34960938 41.52197266 59.91796875 C39.1340781 58.88598827 39.1340781 58.88598827 37 59 C37 58.34 37 57.68 37 57 C37.52464844 56.86464844 38.04929687 56.72929687 38.58984375 56.58984375 C47.35822149 54.15337273 55.63504999 50.5420032 64 47 C64 43.7 64 40.4 64 37 C61.60404885 37 58.73109283 38.7907695 56.62109375 39.703125 Z M96 38 C95.67 40.97 95.34 43.94 95 47 C108.365 52.445 108.365 52.445 122 58 C116.06 60.475 116.06 60.475 110 63 C107.41466901 64.09948117 104.83092013 65.20270434 102.25 66.3125 C101.05890625 66.82425781 99.8678125 67.33601563 98.640625 67.86328125 C97.76921875 68.23839844 96.8978125 68.61351562 96 69 C95.67 72.3 95.34 75.6 95 79 C102.59707507 76.6758948 109.78179112 73.5840017 117.01416016 70.3293457 C119.02030417 69.42838135 121.03138965 68.53914284 123.04296875 67.65039062 C124.32062453 67.07882198 125.59797994 66.50658132 126.875 65.93359375 C128.02742188 65.41853271 129.17984375 64.90347168 130.3671875 64.37280273 C133.10914095 63.27032029 133.10914095 63.27032029 134 61 C134.04022391 58.6670134 134.04320247 56.33293334 134 54 C126.00834409 49.68871195 117.74740229 46.12259959 109.375 42.625 C108.29541016 42.17205566 107.21582031 41.71911133 106.10351562 41.25244141 C105.08708984 40.83140137 104.07066406 40.41036133 103.0234375 39.9765625 C102.10481934 39.59580566 101.18620117 39.21504883 100.23974609 38.82275391 C98.08478994 37.88506207 98.08478994 37.88506207 96 38 Z " fill="#00A4FF" transform="translate(78,99)"/>
<path d="M0 0 C7.26 0 14.52 0 22 0 C24.15057626 5.50939945 26.30108033 11.01882698 28.45141602 16.52832031 C29.17956641 18.39389571 29.90775512 20.25945615 30.63598633 22.125 C35.43277695 34.41325864 40.22214391 46.70436638 45 59 C45.66 59 46.32 59 47 59 C48.41687002 57.37431966 48.41687002 57.37431966 49.8359375 55.22265625 C50.68103882 54.0003833 50.68103882 54.0003833 51.54321289 52.75341797 C52.14770264 51.86541504 52.75219238 50.97741211 53.375 50.0625 C54.65202507 48.21201962 55.92937394 46.36176266 57.20703125 44.51171875 C58.16730225 43.11445557 58.16730225 43.11445557 59.14697266 41.68896484 C61.75889633 37.89875044 64.40569776 34.13384005 67.0625 30.375 C67.53985596 29.69872559 68.01721191 29.02245117 68.5090332 28.32568359 C74.27551766 20.1721697 80.10392579 12.06036094 86 4 C86.61257912 2.96526299 86.61257912 2.96526299 87.23753357 1.90962219 C89 0 89 0 91.54370117 -0.45410156 C92.53345947 -0.4331543 93.52321777 -0.41220703 94.54296875 -0.390625 C95.61611328 -0.37773437 96.68925781 -0.36484375 97.79492188 -0.3515625 C98.91447266 -0.31804687 100.03402344 -0.28453125 101.1875 -0.25 C102.31865234 -0.23195312 103.44980469 -0.21390625 104.61523438 -0.1953125 C107.41100376 -0.14812652 110.20507972 -0.08230595 113 0 C109.98077084 19.34702058 106.95853088 38.69356855 103.93226528 58.03948975 C103.27232781 62.25836247 102.61283465 66.47730439 101.95361328 70.69628906 C101.2414046 75.25327443 100.5274396 79.80998009 99.81158447 84.36639404 C99.56351317 85.94706441 99.31606982 87.52783346 99.0692749 89.10870361 C98.73408221 91.25503203 98.39666247 93.40099801 98.05859375 95.546875 C97.78486938 97.29242676 97.78486938 97.29242676 97.50561523 99.07324219 C97.10337948 101.40158706 96.57307137 103.70771453 96 106 C87.75 106 79.5 106 71 106 C73.35532037 87.28140128 76.12138157 68.64353886 79 50 C78.28457031 51.01835937 77.56914062 52.03671875 76.83203125 53.0859375 C71.26168671 61.00308256 65.66092253 68.89730729 60 76.75 C59.46093018 77.49942871 58.92186035 78.24885742 58.36645508 79.02099609 C57.59724731 80.08568115 57.59724731 80.08568115 56.8125 81.171875 C56.36519531 81.7915918 55.91789062 82.41130859 55.45703125 83.04980469 C53.69407496 85.40947206 51.84004719 87.69994101 50 90 C44.72 90 39.44 90 34 90 C26.08 71.19 26.08 71.19 18 52 C17.67 52 17.34 52 17 52 C16.852994 52.94840508 16.852994 52.94840508 16.70301819 53.91596985 C15.68411345 60.48605204 14.66159643 67.05556472 13.63696289 73.62475586 C13.25484689 76.077736 12.87365774 78.5308607 12.4934082 80.98413086 C11.94725215 84.50673057 11.39778449 88.02879998 10.84765625 91.55078125 C10.6778273 92.65086014 10.50799835 93.75093903 10.33302307 94.88435364 C10.17293259 95.90518539 10.0128421 96.92601715 9.84790039 97.9777832 C9.70800186 98.87713089 9.56810333 99.77647858 9.42396545 100.70307922 C9 103 9 103 8 106 C-0.25 106 -8.5 106 -17 106 C-14.45560097 86.41361897 -11.37409341 66.92072041 -8.27441406 47.41601562 C-7.51620067 42.64423517 -6.76327483 37.87163632 -6.01166344 33.0988121 C-5.42893172 29.40284525 -4.84313803 25.70736873 -4.25642776 22.01203156 C-3.97709793 20.24988347 -3.69880816 18.48757018 -3.42158127 16.72509003 C-3.03731951 14.28463465 -2.6488626 11.84488381 -2.25927734 9.40527344 C-2.08940056 8.31776291 -2.08940056 8.31776291 -1.91609192 7.20828247 C-1.11421917 2.22843834 -1.11421917 2.22843834 0 0 Z " fill="#00A4FF" transform="translate(351,156)"/>
<path d="M0 0 C7.26 0 14.52 0 22 0 C24.15057626 5.50939945 26.30108033 11.01882698 28.45141602 16.52832031 C29.17956641 18.39389571 29.90775512 20.25945615 30.63598633 22.125 C35.43277695 34.41325864 40.22214391 46.70436638 45 59 C45.66 59 46.32 59 47 59 C48.41687002 57.37431966 48.41687002 57.37431966 49.8359375 55.22265625 C50.68103882 54.0003833 50.68103882 54.0003833 51.54321289 52.75341797 C52.14770264 51.86541504 52.75219238 50.97741211 53.375 50.0625 C54.65202507 48.21201962 55.92937394 46.36176266 57.20703125 44.51171875 C58.16730225 43.11445557 58.16730225 43.11445557 59.14697266 41.68896484 C61.75889633 37.89875044 64.40569776 34.13384005 67.0625 30.375 C67.53985596 29.69872559 68.01721191 29.02245117 68.5090332 28.32568359 C74.27551766 20.1721697 80.10392579 12.06036094 86 4 C86.61257912 2.96526299 86.61257912 2.96526299 87.23753357 1.90962219 C89 0 89 0 91.54370117 -0.45410156 C92.53345947 -0.4331543 93.52321777 -0.41220703 94.54296875 -0.390625 C95.61611328 -0.37773438 96.68925781 -0.36484375 97.79492188 -0.3515625 C98.91447266 -0.31804688 100.03402344 -0.28453125 101.1875 -0.25 C102.31865234 -0.23195312 103.44980469 -0.21390625 104.61523438 -0.1953125 C107.41100376 -0.14812652 110.20507972 -0.08230595 113 0 C109.98077084 19.34702058 106.95853088 38.69356855 103.93226528 58.03948975 C103.27232781 62.25836247 102.61283465 66.47730439 101.95361328 70.69628906 C101.2414046 75.25327443 100.5274396 79.80998009 99.81158447 84.36639404 C99.56351317 85.94706441 99.31606982 87.52783346 99.0692749 89.10870361 C98.73408221 91.25503203 98.39666247 93.40099801 98.05859375 95.546875 C97.78486938 97.29242676 97.78486938 97.29242676 97.50561523 99.07324219 C97.10337948 101.40158706 96.57307137 103.70771453 96 106 C87.75 106 79.5 106 71 106 C73.35532037 87.28140128 76.12138157 68.64353886 79 50 C78.28457031 51.01835938 77.56914062 52.03671875 76.83203125 53.0859375 C71.26168671 61.00308256 65.66092253 68.89730729 60 76.75 C59.46093018 77.49942871 58.92186035 78.24885742 58.36645508 79.02099609 C57.59724731 80.08568115 57.59724731 80.08568115 56.8125 81.171875 C56.36519531 81.7915918 55.91789062 82.41130859 55.45703125 83.04980469 C53.69407496 85.40947206 51.84004719 87.69994101 50 90 C44.72 90 39.44 90 34 90 C26.08 71.19 26.08 71.19 18 52 C17.67 52 17.34 52 17 52 C16.852994 52.94840508 16.852994 52.94840508 16.70301819 53.91596985 C15.68411345 60.48605204 14.66159643 67.05556472 13.63696289 73.62475586 C13.25484689 76.077736 12.87365774 78.5308607 12.4934082 80.98413086 C11.94725215 84.50673057 11.39778449 88.02879998 10.84765625 91.55078125 C10.6778273 92.65086014 10.50799835 93.75093903 10.33302307 94.88435364 C10.17293259 95.90518539 10.0128421 96.92601715 9.84790039 97.9777832 C9.70800186 98.87713089 9.56810333 99.77647858 9.42396545 100.70307922 C9 103 9 103 8 106 C-0.25 106 -8.5 106 -17 106 C-14.45560097 86.41361897 -11.37409341 66.92072041 -8.27441406 47.41601562 C-7.51620067 42.64423517 -6.76327483 37.87163632 -6.01166344 33.0988121 C-5.42893172 29.40284525 -4.84313803 25.70736873 -4.25642776 22.01203156 C-3.97709793 20.24988347 -3.69880816 18.48757018 -3.42158127 16.72509003 C-3.03731951 14.28463465 -2.6488626 11.84488381 -2.25927734 9.40527344 C-2.08940056 8.31776291 -2.08940056 8.31776291 -1.91609192 7.20828247 C-1.11421917 2.22843834 -1.11421917 2.22843834 0 0 Z " fill="#00A4FF" transform="translate(368,38)"/>
<path d="M0 0 C1.084021 0.00523682 2.16804199 0.01047363 3.28491211 0.01586914 C4.45473633 0.0190918 5.62456055 0.02231445 6.82983398 0.02563477 C8.0615332 0.03401367 9.29323242 0.04239258 10.56225586 0.05102539 C12.41560547 0.05779297 12.41560547 0.05779297 14.30639648 0.06469727 C17.37089703 0.07652931 20.43530307 0.09301366 23.49975586 0.11352539 C23.38231967 1.73908952 23.25526125 3.36395827 23.12475586 4.98852539 C23.05514648 5.89344727 22.98553711 6.79836914 22.91381836 7.73071289 C22.36308917 12.23006648 21.38873724 16.66861848 20.49975586 21.11352539 C27.42975586 21.11352539 34.35975586 21.11352539 41.49975586 21.11352539 C41.0130205 28.25231063 40.25713544 34.08400707 38.49975586 41.11352539 C31.56975586 41.11352539 24.63975586 41.11352539 17.49975586 41.11352539 C16.99387634 44.63360368 16.49487548 48.15443134 15.99975586 51.67602539 C15.85666992 52.66666992 15.71358398 53.65731445 15.56616211 54.67797852 C13.71483959 63.93499204 13.71483959 63.93499204 16.07788086 72.53540039 C19.29961274 74.63472246 21.43732165 74.51602276 25.24975586 74.36352539 C26.42022461 74.32743164 27.59069336 74.29133789 28.79663086 74.25415039 C29.68866211 74.20774414 30.58069336 74.16133789 31.49975586 74.11352539 C32.37996955 80.82515477 32.61357541 87.3475852 32.49975586 94.11352539 C21.76390734 98.52994468 10.30860886 98.31603433 -0.50024414 94.11352539 C-6.54583142 90.95052796 -9.82164297 86.63858785 -12.75024414 80.48852539 C-14.82470192 71.15346539 -13.19466724 61.63705719 -11.50024414 52.36352539 C-11.21407227 50.72770508 -11.21407227 50.72770508 -10.92211914 49.05883789 C-10.45719998 46.40879867 -9.98002968 43.76091345 -9.50024414 41.11352539 C-14.12024414 41.11352539 -18.74024414 41.11352539 -23.50024414 41.11352539 C-23.17024414 42.00040039 -22.84024414 42.88727539 -22.50024414 43.80102539 C-19.30857983 55.16702419 -21.56435539 67.20465144 -27.18774414 77.36352539 C-33.58590444 87.25016918 -43.63227402 93.53821735 -55.00024414 96.48852539 C-67.71877746 98.71140419 -80.40145343 96.93466943 -91.30883789 89.84399414 C-98.11226482 84.47159105 -101.29290037 77.38193459 -103.18774414 69.11352539 C-104.46737327 56.82908575 -102.36881671 46.48472825 -95.50024414 36.11352539 C-93.06274414 33.30102539 -93.06274414 33.30102539 -90.50024414 31.11352539 C-90.00008789 30.62368164 -89.49993164 30.13383789 -88.98461914 29.62915039 C-80.91832291 22.01516983 -69.98451098 19.19041854 -59.07836914 19.07836914 C-48.00523973 19.57400048 -37.56727423 22.0829977 -29.50024414 30.11352539 C-24.50024414 36.65011076 -24.50024414 36.65011076 -24.50024414 40.11352539 C-23.84024414 40.11352539 -23.18024414 40.11352539 -22.50024414 40.11352539 C-22.4396582 39.32848633 -22.37907227 38.54344727 -22.31665039 37.73461914 C-21.872042 32.15991391 -21.37899771 26.63711923 -20.50024414 21.11352539 C-15.88024414 21.11352539 -11.26024414 21.11352539 -6.50024414 21.11352539 C-6.2952832 19.68137695 -6.09032227 18.24922852 -5.87915039 16.77368164 C-5.60723281 14.90776447 -5.33508555 13.04188075 -5.06274414 11.17602539 C-4.86068359 9.75773438 -4.86068359 9.75773438 -4.65454102 8.31079102 C-4.45634766 6.96210938 -4.45634766 6.96210938 -4.25415039 5.58618164 C-4.13370361 4.75352783 -4.01325684 3.92087402 -3.88916016 3.06298828 C-3.3056151 0.13793662 -3.03988522 0.13802818 0 0 Z M-70.50024414 43.11352539 C-75.37985241 50.55210561 -77.38980119 58.2647737 -76.50024414 67.11352539 C-75.06067096 70.81528499 -73.54674203 73.56762575 -70.50024414 76.11352539 C-66.1736751 77.41561665 -62.45305549 77.4371217 -58.18774414 75.98852539 C-52.37940124 71.93619313 -49.90893748 66.91200196 -48.50024414 60.11352539 C-47.89292066 53.7284218 -47.41789955 47.42057335 -51.50024414 42.11352539 C-57.97459856 37.79728911 -64.59631116 37.70502735 -70.50024414 43.11352539 Z " fill="#00A4FF" transform="translate(1003.500244140625,166.886474609375)"/>
<path d="M0 0 C0.9594603 -0.00570007 1.91892059 -0.01140015 2.90745544 -0.01727295 C4.95285942 -0.0267508 6.99827885 -0.03326791 9.04370117 -0.03710938 C12.1186173 -0.04667291 15.19282326 -0.07760741 18.26757812 -0.109375 C37.39717873 -0.21294315 56.94117556 0.76585279 71.4296875 14.8125 C80.51021534 24.71853037 84.00311796 35.8311432 83.83984375 49.19921875 C82.58672201 66.40726547 77.28414435 81.74531717 64.1328125 93.41015625 C50.14378484 103.6509277 34.64129677 106.71707374 17.56640625 106.49609375 C16.29884491 106.49184891 15.03128357 106.48760406 13.72531128 106.48323059 C10.40773252 106.46943457 7.09061968 106.44263919 3.77319336 106.40911865 C0.36708173 106.37804399 -3.03909901 106.36464667 -6.4453125 106.34960938 C-13.09002064 106.31678055 -19.7344255 106.2667654 -26.37890625 106.203125 C-25.7052882 95.24098668 -23.77142063 84.43248013 -22.03515625 73.6015625 C-21.7024745 71.51220881 -21.36999897 69.42282228 -21.03771973 67.33340454 C-20.34413144 62.97757665 -19.64786451 58.62218764 -18.94970703 54.26708984 C-18.05325134 48.67342738 -17.16387844 43.078665 -16.27649689 37.48355675 C-15.59314152 33.18016027 -14.90594542 28.87738401 -14.21757507 24.57478714 C-13.88780559 22.51040833 -13.55928241 20.44583005 -13.23200989 18.38105392 C-12.77644472 15.51038828 -12.31569465 12.64060323 -11.85351562 9.77099609 C-11.71842087 8.91290344 -11.58332611 8.05481079 -11.44413757 7.17071533 C-10.09103888 -1.15766626 -7.81567311 0.03575552 0 0 Z M14.62109375 23.203125 C12.73752274 29.20353937 11.67713575 35.2269973 10.67578125 41.4296875 C10.50104279 42.4955307 10.32630432 43.5613739 10.14627075 44.65951538 C9.7795502 46.90321071 9.41491459 49.1472477 9.05224609 51.39160156 C8.49666512 54.82459442 7.93238022 58.256078 7.3671875 61.6875 C7.0111966 63.87231082 6.65571052 66.05720396 6.30078125 68.2421875 C6.13206512 69.26623688 5.963349 70.29028625 5.78952026 71.34536743 C5.63580963 72.30341278 5.482099 73.26145813 5.32373047 74.24853516 C5.11960037 75.50593002 5.11960037 75.50593002 4.91134644 76.78872681 C4.61142792 79.28352793 4.57076438 81.69284705 4.62109375 84.203125 C7.9126824 84.26217917 11.20413131 84.29706875 14.49609375 84.328125 C15.8728125 84.35326172 15.8728125 84.35326172 17.27734375 84.37890625 C28.03054633 84.45463303 37.20775041 83.15625157 45.30859375 75.63671875 C53.60724664 66.69492026 54.94781369 56.42634094 54.8359375 44.6171875 C54.44506587 38.40588188 52.52993803 33.20439048 48.23950195 28.50976562 C41.46466261 23.04002054 33.31836884 22.66423428 24.99609375 22.953125 C23.48982422 22.98019531 23.48982422 22.98019531 21.953125 23.0078125 C19.50806723 23.05438503 17.06512563 23.11975472 14.62109375 23.203125 Z " fill="#00A4FF" transform="translate(550.37890625,155.796875)"/>
<path d="M0 0 C2.54503039 2.21663937 4.05449677 4.53676765 5.6953125 7.4765625 C6.6440625 6.5896875 7.5928125 5.7028125 8.5703125 4.7890625 C16.08439478 -1.57829237 23.78892204 -4.77000944 33.6953125 -4.5234375 C39.95863059 -3.95404495 45.28075353 -2.13242005 49.6953125 2.4765625 C56.20782266 11.01218973 54.37992575 23.84797559 53.03295898 33.89013672 C52.18347744 39.62311676 51.19486413 45.3306931 50.1953125 51.0390625 C49.85679808 53.03298711 49.51955077 55.02712727 49.18359375 57.02148438 C48.3709996 61.84300976 47.53277177 66.65903532 46.6953125 71.4765625 C37.7853125 71.4765625 28.8753125 71.4765625 19.6953125 71.4765625 C22.51541127 50.39296697 22.51541127 50.39296697 23.98071289 41.63793945 C26.81533263 29.79051977 26.81533263 29.79051977 24.44921875 18.7265625 C21.57596839 16.67881169 19.19900658 17.33164607 15.84765625 17.84765625 C12.44011276 18.84332685 11.39005621 20.41298734 9.6953125 23.4765625 C7.29398308 29.23265596 5.98303152 34.5930435 5.125 40.75390625 C4.99844025 41.60586075 4.87188049 42.45781525 4.7414856 43.33558655 C4.34274911 46.02726635 3.95576877 48.72045166 3.5703125 51.4140625 C3.17604748 54.13237813 2.77924683 56.85026806 2.37771606 59.56752014 C2.12934698 61.25177239 1.88546134 62.93669299 1.64645386 64.62229919 C0.80689051 70.36498449 0.80689051 70.36498449 -0.3046875 71.4765625 C-2.23136257 71.56404457 -4.16120611 71.58353584 -6.08984375 71.57421875 C-7.84458008 71.56938477 -7.84458008 71.56938477 -9.63476562 71.56445312 C-10.86646484 71.55607422 -12.09816406 71.54769531 -13.3671875 71.5390625 C-15.22053711 71.53229492 -15.22053711 71.53229492 -17.11132812 71.52539062 C-20.17582867 71.51355858 -23.24023471 71.49707423 -26.3046875 71.4765625 C-25.67777782 61.39485557 -24.09331367 51.53096917 -22.38598633 41.59008789 C-22.04036986 39.56733462 -21.70161805 37.54351285 -21.36328125 35.51953125 C-21.16017334 34.33383545 -20.95706543 33.14813965 -20.74780273 31.92651367 C-20.11747356 27.01897559 -19.78023887 22.24046448 -21.3046875 17.4765625 C-28.8606736 16.94481464 -28.8606736 16.94481464 -35.3046875 20.4765625 C-38.39568089 25.58029577 -39.28688228 30.62368022 -40.2421875 36.4140625 C-40.4882373 37.83452881 -40.4882373 37.83452881 -40.73925781 39.28369141 C-41.0871333 41.29668248 -41.43093998 43.31038028 -41.77099609 45.32470703 C-42.48525012 49.54292273 -43.22493382 53.75655135 -43.96411133 57.97045898 C-44.75029795 62.47145053 -45.52649817 66.97418139 -46.3046875 71.4765625 C-55.2146875 71.4765625 -64.1246875 71.4765625 -73.3046875 71.4765625 C-71.25664629 56.85689727 -69.05325531 42.27081874 -66.71533203 27.69482422 C-66.1703276 24.29314207 -65.62998566 20.89073852 -65.08984375 17.48828125 C-64.7424647 15.31505984 -64.39481892 13.14188104 -64.046875 10.96875 C-63.80624832 9.45025955 -63.80624832 9.45025955 -63.5607605 7.90109253 C-63.41035309 6.96806305 -63.25994568 6.03503357 -63.10498047 5.07373047 C-62.97413055 4.25548798 -62.84328064 3.43724548 -62.70846558 2.59420776 C-62.3046875 0.4765625 -62.3046875 0.4765625 -61.3046875 -2.5234375 C-52.7246875 -2.5234375 -44.1446875 -2.5234375 -35.3046875 -2.5234375 C-35.3046875 0.1165625 -35.3046875 2.7565625 -35.3046875 5.4765625 C-34.345625 4.3628125 -34.345625 4.3628125 -33.3671875 3.2265625 C-24.55350529 -5.61222992 -10.17928586 -7.04719791 0 0 Z " fill="#00A4FF" transform="translate(843.3046875,190.5234375)"/>
<path d="M0 0 C8.58 0 17.16 0 26 0 C25.34419772 12.02612062 23.39482253 23.75397848 21.4375 35.625 C20.94299219 38.64498687 20.45004559 41.66521184 19.95973206 44.68588257 C19.65637411 46.55271449 19.35043636 48.41912949 19.04161072 50.2850647 C18.90469315 51.1237912 18.76777557 51.9625177 18.62670898 52.82666016 C18.50537094 53.56244293 18.3840329 54.29822571 18.25901794 55.05630493 C17.93395357 57.16880575 17.93395357 57.16880575 18 60 C20.85846007 57.17097124 23.71094984 54.33599221 26.5625 51.5 C27.36236328 50.70851562 28.16222656 49.91703125 28.98632812 49.1015625 C33.36612088 44.73964645 37.58930756 40.31160669 41.60522461 35.61132812 C44.71284542 32.02121832 44.71284542 32.02121832 48.07275391 31.77294922 C49.36101074 31.78342285 50.64926758 31.79389648 51.9765625 31.8046875 C52.66181 31.8075174 53.3470575 31.81034729 54.05307007 31.81326294 C56.24389027 31.82446719 58.43430316 31.84957141 60.625 31.875 C62.1093691 31.88502952 63.5937446 31.89415542 65.078125 31.90234375 C68.71888261 31.92440706 72.35940156 31.95893824 76 32 C72.09443903 37.49651716 67.90952662 42.32182472 63.0625 47 C58.14682366 51.82899709 53.42548396 56.71282325 49 62 C47.0032744 64.33614328 45.0018032 66.66820699 43 69 C45.1274922 72.36194864 47.25991089 75.72071926 49.39648438 79.0769043 C50.46992205 80.76519378 51.53970217 82.45580704 52.609375 84.14648438 C56.71395803 90.58839941 60.97382354 96.84181074 65.54882812 102.9597168 C67 105 67 105 67 106 C45.25478915 110.09455013 45.25478915 110.09455013 36 106 C27.3808051 99.51816994 22.19210605 88.18558984 17.45751953 78.75390625 C16.97653809 77.84511719 16.49555664 76.93632813 16 76 C15.67 76 15.34 76 15 76 C13.35 85.9 11.7 95.8 10 106 C1.09 106 -7.82 106 -17 106 C-14.45560097 86.41361897 -11.37409341 66.92072041 -8.27441406 47.41601562 C-7.51620067 42.64423517 -6.76327483 37.87163632 -6.01166344 33.0988121 C-5.42893172 29.40284525 -4.84313803 25.70736873 -4.25642776 22.01203156 C-3.97709793 20.24988347 -3.69880816 18.48757018 -3.42158127 16.72509003 C-3.03731951 14.28463465 -2.6488626 11.84488381 -2.25927734 9.40527344 C-2.08940056 8.31776291 -2.08940056 8.31776291 -1.91609192 7.20828247 C-1.11421917 2.22843834 -1.11421917 2.22843834 0 0 Z " fill="#00A4FF" transform="translate(625,38)"/>
<path d="M0 0 C6.55833473 7.01589296 9.00546339 15.17277917 8.90576172 24.60595703 C8.45492289 31.35845357 7.27503601 38.02703063 6.17895508 44.69995117 C5.74723817 47.32932091 5.32678805 49.96030764 4.90820312 52.59179688 C4.63866571 54.26833297 4.36850599 55.94476916 4.09765625 57.62109375 C3.90853416 58.79761757 3.90853416 58.79761757 3.71559143 59.99790955 C3.21155219 63.05569688 2.66934817 65.92945549 1.6875 68.875 C-6.5625 68.875 -14.8125 68.875 -23.3125 68.875 C-23.3125 66.565 -23.3125 64.255 -23.3125 61.875 C-23.725 62.27332031 -24.1375 62.67164063 -24.5625 63.08203125 C-30.0530258 68.11909845 -34.80376092 70.54083437 -42.25 71.25 C-51.02934519 70.82048213 -57.41998803 67.30077097 -63.3125 60.875 C-67.12892848 56.08791919 -68.54554219 50.92396455 -68.3125 44.875 C-67.35350398 38.76770954 -65.12681319 34.80619828 -60.18359375 31.0859375 C-47.33594072 22.77117249 -30.9426261 24.63327194 -16.3125 24.875 C-16.54110058 23.41315942 -16.79620392 21.95544581 -17.0625 20.5 C-17.20171875 19.68789062 -17.3409375 18.87578125 -17.484375 18.0390625 C-18.12737773 15.73570565 -18.12737773 15.73570565 -20.20336914 14.60693359 C-31.49396174 10.68874901 -43.87803203 15.62462956 -54.3125 19.875 C-55.17750888 17.27398714 -56.02976928 14.66993589 -56.875 12.0625 C-57.12185547 11.32451172 -57.36871094 10.58652344 -57.62304688 9.82617188 C-59.42578125 4.21484375 -59.42578125 4.21484375 -58.3125 0.875 C-51.79266557 -2.69185747 -44.6320157 -4.95225992 -37.3125 -6.125 C-36.30896484 -6.30869141 -36.30896484 -6.30869141 -35.28515625 -6.49609375 C-22.76220842 -8.38503001 -10.68368517 -6.85368482 0 0 Z M-42.3125 41.875 C-42.89619443 45.29038144 -42.89619443 45.29038144 -42.3125 48.875 C-40.17766815 51.5607562 -38.58350736 52.64836817 -35.1875 53.25390625 C-29.77482541 53.53734022 -26.47952532 52.54595087 -22.3125 48.875 C-19.33539945 45.07663033 -18.77854349 41.62864364 -18.3125 36.875 C-31.27454972 36.08889543 -31.27454972 36.08889543 -42.3125 41.875 Z M-22.3125 58.875 C-21.3125 60.875 -21.3125 60.875 -21.3125 60.875 Z " fill="#00A4FF" transform="translate(540.3125,75.125)"/>
<path d="M0 0 C7.02291497 7.76651773 9.39158402 17.11862796 9.29296875 27.4140625 C9.0680341 30.54222347 8.56853098 33.64528312 8.125 36.75 C-8.375 36.75 -24.875 36.75 -41.875 36.75 C-38.66791667 44.29516756 -38.66791667 44.29516756 -32.875 47.75 C-22.47897192 50.80383325 -11.58120269 47.81635085 -1.875 43.75 C0.44830984 49.35526694 2.59245644 54.87524968 4.125 60.75 C-10.96634797 69.15220995 -25.77876499 72.19225934 -42.6953125 67.8515625 C-52.28004911 64.53105178 -59.17829571 58.80734455 -63.86328125 49.86328125 C-68.65691099 39.38999541 -67.62793488 28.36174691 -63.875 17.75 C-59.52076437 6.46124096 -51.51040163 -0.20856889 -40.73828125 -5.25 C-27.87378689 -10.50700359 -10.5152503 -9.75779583 0 0 Z M-35.875 13.75 C-38.21155533 16.96276358 -39.875 19.67238228 -39.875 23.75 C-30.635 23.75 -21.395 23.75 -11.875 23.75 C-11.875 17.57266335 -12.15942706 16.29125581 -15.875 11.75 C-22.36262212 7.69178531 -30.3670599 8.63548419 -35.875 13.75 Z " fill="#00A4FF" transform="translate(702.875,194.25)"/>
<path d="M0 0 C1.084021 0.00523682 2.16804199 0.01047363 3.28491211 0.01586914 C4.45473633 0.0190918 5.62456055 0.02231445 6.82983398 0.02563477 C8.0615332 0.03401367 9.29323242 0.04239258 10.56225586 0.05102539 C12.41560547 0.05779297 12.41560547 0.05779297 14.30639648 0.06469727 C17.37089703 0.07652931 20.43530307 0.09301366 23.49975586 0.11352539 C23.38231967 1.73908952 23.25526125 3.36395827 23.12475586 4.98852539 C23.05514648 5.89344727 22.98553711 6.79836914 22.91381836 7.73071289 C22.36308917 12.23006648 21.38873724 16.66861848 20.49975586 21.11352539 C27.42975586 21.11352539 34.35975586 21.11352539 41.49975586 21.11352539 C41.0130205 28.25231063 40.25713544 34.08400707 38.49975586 41.11352539 C31.56975586 41.11352539 24.63975586 41.11352539 17.49975586 41.11352539 C16.99387634 44.63360368 16.49487548 48.15443134 15.99975586 51.67602539 C15.85666992 52.66666992 15.71358398 53.65731445 15.56616211 54.67797852 C13.71483959 63.93499204 13.71483959 63.93499204 16.07788086 72.53540039 C19.29961274 74.63472246 21.43732165 74.51602276 25.24975586 74.36352539 C26.42022461 74.32743164 27.59069336 74.29133789 28.79663086 74.25415039 C29.68866211 74.20774414 30.58069336 74.16133789 31.49975586 74.11352539 C32.37996955 80.82515477 32.61357541 87.3475852 32.49975586 94.11352539 C21.76390734 98.52994468 10.30860886 98.31603433 -0.50024414 94.11352539 C-6.54583142 90.95052796 -9.82164297 86.63858785 -12.75024414 80.48852539 C-14.82470192 71.15346539 -13.19466724 61.63705719 -11.50024414 52.36352539 C-11.30946289 51.27297852 -11.11868164 50.18243164 -10.92211914 49.05883789 C-10.45719998 46.40879867 -9.98002968 43.76091345 -9.50024414 41.11352539 C-14.12024414 41.11352539 -18.74024414 41.11352539 -23.50024414 41.11352539 C-22.51024414 34.51352539 -21.52024414 27.91352539 -20.50024414 21.11352539 C-15.88024414 21.11352539 -11.26024414 21.11352539 -6.50024414 21.11352539 C-6.2952832 19.68137695 -6.09032227 18.24922852 -5.87915039 16.77368164 C-5.60723281 14.90776447 -5.33508555 13.04188075 -5.06274414 11.17602539 C-4.92803711 10.23049805 -4.79333008 9.2849707 -4.65454102 8.31079102 C-4.52241211 7.41166992 -4.3902832 6.51254883 -4.25415039 5.58618164 C-4.13370361 4.75352783 -4.01325684 3.92087402 -3.88916016 3.06298828 C-3.3056151 0.13793662 -3.03988522 0.13802818 0 0 Z " fill="#00A4FF" transform="translate(1067.500244140625,166.886474609375)"/>
<path d="M0 0 C-3.465 8.415 -3.465 8.415 -7 17 C-10 17 -10 17 -12.8125 15.5 C-18.52579678 12.94854909 -24.89775779 13.34801974 -31 14 C-35.99915096 16.24099871 -38.29559051 19.29232421 -41 24 C-42.14888581 27.44665742 -42.2039347 30.24351905 -42.25 33.875 C-42.27578125 35.08929688 -42.3015625 36.30359375 -42.328125 37.5546875 C-41.97291955 41.28434469 -41.31739234 43.08625839 -39 46 C-33.30245013 49.76207645 -27.30535729 49.02026681 -20.89453125 47.8359375 C-17.69111287 46.91079373 -14.93332703 45.57313242 -12 44 C-11.13521219 46.76791945 -10.28288326 49.53865626 -9.4375 52.3125 C-9.0672168 53.49102539 -9.0672168 53.49102539 -8.68945312 54.69335938 C-8.46064453 55.45068359 -8.23183594 56.20800781 -7.99609375 56.98828125 C-7.78138428 57.68477783 -7.5666748 58.38127441 -7.34545898 59.09887695 C-7 61 -7 61 -8 64 C-18.71942145 70.86140644 -33.03234788 71.49507463 -45.125 68.875 C-54.70793176 66.17823256 -61.91790526 61.66648605 -67 53 C-72.44717655 42.81335094 -71.95762636 31.75618486 -68.9765625 20.890625 C-67.50777292 16.54300785 -65.55795561 12.80018117 -63 9 C-62.59265625 8.38511719 -62.1853125 7.77023438 -61.765625 7.13671875 C-56.24926831 -0.18056615 -46.90845388 -5.28683579 -38 -7 C-36.845 -7.226875 -35.69 -7.45375 -34.5 -7.6875 C-22.28623615 -8.9681665 -9.95437369 -7.46578027 0 0 Z " fill="#00A4FF" transform="translate(528,194)"/>
<path d="M0 0 C-0.13888506 3.27116732 -0.28730492 6.541834 -0.4375 9.8125 C-0.47681641 10.74126953 -0.51613281 11.67003906 -0.55664062 12.62695312 C-0.59853516 13.51962891 -0.64042969 14.41230469 -0.68359375 15.33203125 C-0.72025146 16.15421143 -0.75690918 16.9763916 -0.79467773 17.82348633 C-1 20 -1 20 -2 23 C-2.6705542 23.08040527 -3.3411084 23.16081055 -4.03198242 23.24365234 C-7.08472251 23.61372944 -10.13607249 23.99425799 -13.1875 24.375 C-14.24259766 24.50132812 -15.29769531 24.62765625 -16.38476562 24.7578125 C-17.40634766 24.88671875 -18.42792969 25.015625 -19.48046875 25.1484375 C-20.41785889 25.26364746 -21.35524902 25.37885742 -22.32104492 25.49755859 C-25.14273757 26.02677061 -27.44605594 26.68226325 -30 28 C-33.92482059 36.43741623 -34.68901963 46.24690948 -36.125 55.375 C-36.52024607 57.85190749 -36.91763058 60.32844624 -37.31759644 62.80459595 C-37.56448692 64.33662554 -37.80836962 65.86914367 -38.04885864 67.40219116 C-38.52322917 70.37424653 -39.04615792 73.13847375 -40 76 C-48.91 76 -57.82 76 -67 76 C-65.48946461 61.86865249 -63.32805977 47.87459674 -61.05883789 33.84667969 C-60.42996847 29.95337255 -59.80942406 26.05879546 -59.18945312 22.1640625 C-58.79215996 19.69262898 -58.39439158 17.2212718 -57.99609375 14.75 C-57.81066513 13.58355957 -57.62523651 12.41711914 -57.43418884 11.21533203 C-57.26053299 10.14911621 -57.08687714 9.08290039 -56.90795898 7.984375 C-56.75632797 7.04303711 -56.60469696 6.10169922 -56.44847107 5.13183594 C-56 3 -56 3 -55 2 C-53.07332493 1.91251793 -51.14348139 1.89302666 -49.21484375 1.90234375 C-48.04501953 1.90556641 -46.87519531 1.90878906 -45.66992188 1.91210938 C-44.43822266 1.92048828 -43.20652344 1.92886719 -41.9375 1.9375 C-40.08415039 1.94426758 -40.08415039 1.94426758 -38.19335938 1.95117188 C-35.12885883 1.96300392 -32.06445279 1.97948827 -29 2 C-29.33 5.3 -29.66 8.6 -30 12 C-29.34 11.278125 -28.68 10.55625 -28 9.8125 C-19.85232258 1.77893571 -11.21652658 -0.15101811 0 0 Z " fill="#00A4FF" transform="translate(778,186)"/>
<path d="M0 0 C-0.13888506 3.27116732 -0.28730492 6.541834 -0.4375 9.8125 C-0.47681641 10.74126953 -0.51613281 11.67003906 -0.55664062 12.62695312 C-0.59853516 13.51962891 -0.64042969 14.41230469 -0.68359375 15.33203125 C-0.72025146 16.15421143 -0.75690918 16.9763916 -0.79467773 17.82348633 C-1 20 -1 20 -2 23 C-2.6705542 23.08040527 -3.3411084 23.16081055 -4.03198242 23.24365234 C-7.08472251 23.61372944 -10.13607249 23.99425799 -13.1875 24.375 C-14.24259766 24.50132813 -15.29769531 24.62765625 -16.38476562 24.7578125 C-17.40634766 24.88671875 -18.42792969 25.015625 -19.48046875 25.1484375 C-20.41785889 25.26364746 -21.35524902 25.37885742 -22.32104492 25.49755859 C-25.14273757 26.02677061 -27.44605594 26.68226325 -30 28 C-33.92482059 36.43741623 -34.68901963 46.24690948 -36.125 55.375 C-36.52024607 57.85190749 -36.91763058 60.32844624 -37.31759644 62.80459595 C-37.56448692 64.33662554 -37.80836962 65.86914367 -38.04885864 67.40219116 C-38.52322917 70.37424653 -39.04615792 73.13847375 -40 76 C-48.91 76 -57.82 76 -67 76 C-65.48946461 61.86865249 -63.32805977 47.87459674 -61.05883789 33.84667969 C-60.42996847 29.95337255 -59.80942406 26.05879546 -59.18945312 22.1640625 C-58.79215996 19.69262898 -58.39439158 17.2212718 -57.99609375 14.75 C-57.81066513 13.58355957 -57.62523651 12.41711914 -57.43418884 11.21533203 C-57.26053299 10.14911621 -57.08687714 9.08290039 -56.90795898 7.984375 C-56.75632797 7.04303711 -56.60469696 6.10169922 -56.44847107 5.13183594 C-56 3 -56 3 -55 2 C-53.07332493 1.91251793 -51.14348139 1.89302666 -49.21484375 1.90234375 C-48.04501953 1.90556641 -46.87519531 1.90878906 -45.66992188 1.91210938 C-44.43822266 1.92048828 -43.20652344 1.92886719 -41.9375 1.9375 C-40.08415039 1.94426758 -40.08415039 1.94426758 -38.19335938 1.95117188 C-35.12885883 1.96300392 -32.06445279 1.97948827 -29 2 C-29.33 5.3 -29.66 8.6 -30 12 C-29.34 11.278125 -28.68 10.55625 -28 9.8125 C-19.85232258 1.77893571 -11.21652658 -0.15101811 0 0 Z " fill="#00A4FF" transform="translate(616,68)"/>
<path d="M0 0 C2.38268836 1.58845891 2.88603501 2.69066646 3.875 5.375 C4.0389951 8.81889713 3.05689702 10.28195751 1 13 C-2 15 -2 15 -5.4375 14.9375 C-9 14 -9 14 -11.5 11.8125 C-13 9 -13 9 -13.0625 5.9375 C-10.64059697 -0.75834954 -6.55414775 -1.8205966 0 0 Z " fill="#00A4FF" transform="translate(235,79)"/>
<path d="M0 0 C3.84447528 0.70612811 5.4893383 1.61093216 8.0625 4.5625 C8.86990332 9.00321826 8.56581836 10.83040056 6 14.5625 C3.0625 16.5625 3.0625 16.5625 -0.5 16.6875 C-4.54769331 15.36280037 -5.90680738 14.28543647 -7.9375 10.5625 C-7.9375 7.23807972 -6.96159797 5.60266328 -5.25 2.75 C-2.9375 0.5625 -2.9375 0.5625 0 0 Z " fill="#00A4FF" transform="translate(209.9375,77.4375)"/>
<path d="M0 0 C1.9375 1.125 1.9375 1.125 3 3 C3.65088557 7.39347757 3.47438867 9.30998011 0.9375 13 C-2 15 -2 15 -5.625 15.0625 C-9 14 -9 14 -10.9375 12.375 C-12.45259656 8.98831357 -12.52368962 6.66582737 -12 3 C-8.31376997 -1.46815761 -5.41712863 -1.50475795 0 0 Z " fill="#00A4FF" transform="translate(195,79)"/>
<path d="" fill="#00A4FF" transform="translate(0,0)"/>
</svg>
